<svg width="351" height="220" viewBox="0 0 351 220" fill="none" xmlns="http://www.w3.org/2000/svg">
<rect x="45.2224" y="182.818" width="48.7878" height="16.9048" rx="4" fill="#0001AE"/>
<path d="M52.662 191.341V191.971H57.684V191.341H52.662ZM55.164 192.271C53.958 192.271 53.232 192.637 53.232 193.291C53.232 193.945 53.958 194.311 55.164 194.311C56.364 194.311 57.09 193.945 57.09 193.291C57.09 192.637 56.364 192.271 55.164 192.271ZM55.164 192.877C55.908 192.877 56.286 193.009 56.286 193.291C56.286 193.579 55.908 193.705 55.164 193.705C54.42 193.705 54.042 193.579 54.042 193.291C54.042 193.009 54.42 192.877 55.164 192.877ZM55.176 188.863C53.952 188.863 53.166 189.283 53.166 189.955C53.166 190.633 53.952 191.047 55.176 191.047C56.394 191.047 57.186 190.633 57.186 189.955C57.186 189.283 56.394 188.863 55.176 188.863ZM55.176 189.481C55.932 189.481 56.364 189.637 56.364 189.955C56.364 190.279 55.932 190.429 55.176 190.429C54.414 190.429 53.988 190.279 53.988 189.955C53.988 189.637 54.414 189.481 55.176 189.481ZM58.1875 193.015V193.663H63.2155V193.015H58.1875ZM60.2935 191.785V193.165H61.0915V191.785H60.2935ZM58.7095 189.157V191.887H62.6635V189.157H58.7095ZM61.8835 189.793V191.257H59.4955V189.793H61.8835ZM64.2711 189.211V189.847H67.7691V189.211H64.2711ZM63.7011 193.027V193.669H68.7231V193.027H63.7011ZM67.4511 189.211V189.697C67.4511 190.339 67.4511 191.149 67.1991 192.277L67.9851 192.361C68.2431 191.155 68.2371 190.369 68.2371 189.697V189.211H67.4511ZM67.5951 190.549L64.0971 190.657L64.2051 191.335L67.5951 191.149V190.549ZM65.4831 191.695V193.261H66.2811V191.695H65.4831ZM73.0366 188.755V192.745H73.8406V188.755H73.0366ZM70.1386 193.573V194.209H73.9786V193.573H70.1386ZM70.1386 192.343V193.831H70.9366V192.343H70.1386ZM70.8166 189.103C69.9646 189.103 69.3046 189.691 69.3046 190.513C69.3046 191.329 69.9646 191.923 70.8166 191.923C71.6686 191.923 72.3226 191.329 72.3226 190.513C72.3226 189.691 71.6686 189.103 70.8166 189.103ZM70.8166 189.793C71.2246 189.793 71.5426 190.057 71.5426 190.513C71.5426 190.963 71.2246 191.227 70.8166 191.227C70.4026 191.227 70.0846 190.963 70.0846 190.513C70.0846 190.057 70.4026 189.793 70.8166 189.793ZM79.5876 188.749V191.989H80.3856V188.749H79.5876ZM80.1636 190.009V190.663H81.1236V190.009H80.1636ZM76.1736 189.073V191.719H78.8436V189.073H78.0516V189.775H76.9656V189.073H76.1736ZM76.9656 190.387H78.0516V191.095H76.9656V190.387ZM76.7736 192.235V194.059H77.5716V192.865H80.4156V192.235H76.7736ZM76.7736 193.609V194.239H80.5236V193.609H76.7736ZM85.3591 188.749V194.305H86.1631V188.749H85.3591ZM83.7211 189.325V189.469C83.7211 190.957 83.1451 191.965 81.5491 192.733L81.9631 193.369C83.9371 192.415 84.5131 191.023 84.5131 189.325H83.7211ZM81.8431 189.325V189.955H84.0991V189.325H81.8431Z" fill="white"/>
<circle cx="15.5615" cy="28.2424" r="15" fill="#000079"/>
<circle cx="15.5615" cy="109.667" r="15" fill="#000079"/>
<circle cx="15.5615" cy="191.271" r="15" fill="#000079"/>
<path d="M13.8367 25.4924L14.2567 23.1074H18.4117L16.5367 33.7424H13.8667L15.3217 25.4924H13.8367Z" fill="white"/>
<path d="M12.0418 112.692C13.1318 111.912 14.0018 111.267 14.6518 110.757C15.3018 110.247 15.8618 109.727 16.3318 109.197C16.8118 108.657 17.0918 108.142 17.1718 107.652C17.2018 107.512 17.2168 107.382 17.2168 107.262C17.2168 106.972 17.1368 106.752 16.9768 106.602C16.8268 106.452 16.5968 106.377 16.2868 106.377C15.5168 106.377 15.0268 106.922 14.8168 108.012H12.3268C12.5868 106.752 13.1268 105.807 13.9468 105.177C14.7768 104.537 15.7268 104.217 16.7968 104.217C17.8368 104.217 18.6068 104.452 19.1068 104.922C19.6168 105.392 19.8718 106.012 19.8718 106.782C19.8718 107.022 19.8518 107.242 19.8118 107.442C19.6318 108.462 19.1018 109.412 18.2218 110.292C17.3518 111.172 16.2718 112.052 14.9818 112.932H19.0318L18.6568 115.017H11.1268L11.4568 113.112L12.0418 112.692Z" fill="white"/>
<path d="M12.4155 188.911C12.6455 187.841 13.1405 187.016 13.9005 186.436C14.6605 185.856 15.6055 185.566 16.7355 185.566C17.7255 185.566 18.4855 185.791 19.0155 186.241C19.5455 186.691 19.8105 187.276 19.8105 187.996C19.8105 188.176 19.7955 188.356 19.7655 188.536C19.6455 189.196 19.3855 189.736 18.9855 190.156C18.5855 190.566 18.1505 190.846 17.6805 190.996V191.056C18.1305 191.216 18.4805 191.466 18.7305 191.806C18.9805 192.136 19.1055 192.556 19.1055 193.066C19.1055 193.286 19.0855 193.496 19.0455 193.696C18.8755 194.636 18.4205 195.401 17.6805 195.991C16.9405 196.571 16.0105 196.861 14.8905 196.861C13.8205 196.861 12.9755 196.626 12.3555 196.156C11.7455 195.686 11.4405 194.971 11.4405 194.011C11.4405 193.881 11.4605 193.646 11.5005 193.306H13.9905C13.9705 193.466 13.9605 193.576 13.9605 193.636C13.9605 193.986 14.0605 194.256 14.2605 194.446C14.4605 194.636 14.7605 194.731 15.1605 194.731C15.6105 194.731 15.9705 194.586 16.2405 194.296C16.5105 194.006 16.6455 193.636 16.6455 193.186C16.6455 192.816 16.5055 192.551 16.2255 192.391C15.9555 192.221 15.5255 192.136 14.9355 192.136H14.4555L14.8305 190.051H15.3105C16.4405 190.051 17.0805 189.651 17.2305 188.851C17.2505 188.731 17.2605 188.641 17.2605 188.581C17.2605 188.301 17.1755 188.086 17.0055 187.936C16.8455 187.786 16.6105 187.711 16.3005 187.711C15.9205 187.711 15.6155 187.826 15.3855 188.056C15.1555 188.286 14.9955 188.571 14.9055 188.911H12.4155Z" fill="white"/>
<rect x="104.543" y="0.277832" width="245.519" height="55.9291" rx="10" fill="white"/>
<rect x="104.543" y="81.7029" width="245.519" height="55.9291" rx="10" fill="white"/>
<rect x="104.303" y="163.306" width="245.519" height="55.9291" rx="10" fill="white"/>
<path d="M115.867 20.2924V21.1324H124.127V20.2924H115.867ZM119.987 21.7724C118.017 21.7724 116.837 22.3624 116.837 23.4224C116.837 24.4824 118.017 25.0724 119.987 25.0724C121.947 25.0724 123.137 24.4824 123.137 23.4224C123.137 22.3624 121.947 21.7724 119.987 21.7724ZM119.987 22.5724C121.327 22.5724 122.077 22.8724 122.077 23.4224C122.077 23.9824 121.327 24.2724 119.987 24.2724C118.647 24.2724 117.897 23.9824 117.897 23.4224C117.897 22.8724 118.647 22.5724 119.987 22.5724ZM119.997 16.1424C118.007 16.1424 116.747 16.8124 116.747 17.9124C116.747 19.0124 118.007 19.6724 119.997 19.6724C121.987 19.6724 123.257 19.0124 123.257 17.9124C123.257 16.8124 121.987 16.1424 119.997 16.1424ZM119.997 16.9624C121.357 16.9624 122.177 17.3024 122.177 17.9124C122.177 18.5224 121.357 18.8524 119.997 18.8524C118.637 18.8524 117.827 18.5224 117.827 17.9124C117.827 17.3024 118.637 16.9624 119.997 16.9624ZM125.077 23.0924V23.9524H133.357V23.0924H125.077ZM128.677 20.8824V23.3124H129.717V20.8824H128.677ZM125.997 16.6524V21.0424H132.387V16.6524H125.997ZM131.367 17.4924V20.2024H127.027V17.4924H131.367ZM135.236 16.7624V17.6124H141.016V16.7624H135.236ZM134.266 23.0624V23.9124H142.526V23.0624H134.266ZM140.586 16.7624V17.6024C140.586 18.6724 140.586 19.9824 140.186 21.7924L141.226 21.9024C141.626 19.9824 141.616 18.7124 141.616 17.6024V16.7624H140.586ZM140.796 18.9624L134.966 19.1724L135.116 20.0624L140.796 19.7524V18.9624ZM137.356 20.7724V23.3724H138.406V20.7724H137.356ZM144.485 20.2424V21.0824H150.825V20.2424H144.485ZM143.475 23.0324V23.8924H151.755V23.0324H143.475ZM144.485 16.7324V20.6024H145.525V17.5924H150.745V16.7324H144.485ZM154.91 20.5524V21.4024H163.17V20.5524H154.91ZM158.52 19.2824V20.7724H159.56V19.2824H158.52ZM155.83 22.1824V23.0124H161.12V25.0724H162.16V22.1824H155.83ZM155.99 16.1524V19.6224H162.11V16.1524H161.07V17.0824H157.02V16.1524H155.99ZM157.02 17.8824H161.07V18.7924H157.02V17.8824ZM166.27 16.6824V18.1824C166.27 19.8724 165.38 21.6224 163.96 22.3124L164.6 23.1524C166.17 22.3524 167.12 20.3124 167.12 18.1824V16.6824H166.27ZM166.47 16.6824V18.1824C166.47 20.2424 167.38 22.1924 168.9 22.9824L169.54 22.1524C168.17 21.4724 167.31 19.8124 167.31 18.1824V16.6824H166.47ZM170.15 15.9324V25.0724H171.2V15.9324H170.15ZM170.96 19.5524V20.4224H172.62V19.5524H170.96ZM175.975 16.9324V17.7624H183.365V16.9324H175.975ZM175.565 21.8524V22.7024H183.845V21.8524H175.565ZM179.165 22.5724V25.0824H180.205V22.5724H179.165ZM179.685 18.2224C177.775 18.2224 176.645 18.7724 176.645 19.7624C176.645 20.7524 177.775 21.3124 179.685 21.3124C181.595 21.3124 182.725 20.7524 182.725 19.7624C182.725 18.7724 181.595 18.2224 179.685 18.2224ZM179.685 19.0024C180.965 19.0024 181.645 19.2624 181.645 19.7624C181.645 20.2624 180.965 20.5224 179.685 20.5224C178.415 20.5224 177.735 20.2624 177.735 19.7624C177.735 19.2624 178.415 19.0024 179.685 19.0024ZM179.165 15.9024V17.4924H180.205V15.9024H179.165ZM193.05 15.9324V25.0724H194.09V15.9324H193.05ZM193.85 19.6024V20.4724H195.51V19.6024H193.85ZM186.96 17.3424V18.1824H192.32V17.3424H186.96ZM189.67 18.8424C188.36 18.8424 187.4 19.7224 187.4 20.9724C187.4 22.2324 188.36 23.1124 189.67 23.1124C190.97 23.1124 191.93 22.2324 191.93 20.9724C191.93 19.7224 190.97 18.8424 189.67 18.8424ZM189.67 19.7024C190.4 19.7024 190.93 20.2024 190.93 20.9724C190.93 21.7424 190.4 22.2524 189.67 22.2524C188.93 22.2524 188.4 21.7424 188.4 20.9724C188.4 20.2024 188.93 19.7024 189.67 19.7024ZM189.13 16.0624V17.6924H190.18V16.0624H189.13ZM202.29 15.9324V22.5424H203.34V15.9324H202.29ZM203.03 18.5424V19.4124H204.63V18.5424H203.03ZM196.59 20.1324V20.9824H197.32C199.29 20.9824 200.35 20.9324 201.55 20.6724L201.44 19.8324C200.27 20.0824 199.25 20.1324 197.32 20.1324H196.59ZM196.59 16.6924V20.5824H197.63V17.5424H200.65V16.6924H196.59ZM197.56 24.0424V24.8924H203.71V24.0424H197.56ZM197.56 21.8624V24.4524H198.61V21.8624H197.56ZM215.265 17.2924V24.2424H214.125V19.4824L212.005 24.2424H211.215L209.085 19.4824V24.2424H207.945V17.2924H209.175L211.615 22.7424L214.045 17.2924H215.265ZM221.813 21.3524C221.813 21.5591 221.8 21.7458 221.773 21.9124H217.563C217.597 22.3524 217.76 22.7058 218.053 22.9724C218.347 23.2391 218.707 23.3724 219.133 23.3724C219.747 23.3724 220.18 23.1158 220.433 22.6024H221.663C221.497 23.1091 221.193 23.5258 220.753 23.8524C220.32 24.1724 219.78 24.3324 219.133 24.3324C218.607 24.3324 218.133 24.2158 217.713 23.9824C217.3 23.7424 216.973 23.4091 216.733 22.9824C216.5 22.5491 216.383 22.0491 216.383 21.4824C216.383 20.9158 216.497 20.4191 216.723 19.9924C216.957 19.5591 217.28 19.2258 217.693 18.9924C218.113 18.7591 218.593 18.6424 219.133 18.6424C219.653 18.6424 220.117 18.7558 220.523 18.9824C220.93 19.2091 221.247 19.5291 221.473 19.9424C221.7 20.3491 221.813 20.8191 221.813 21.3524ZM220.623 20.9924C220.617 20.5724 220.467 20.2358 220.173 19.9824C219.88 19.7291 219.517 19.6024 219.083 19.6024C218.69 19.6024 218.353 19.7291 218.073 19.9824C217.793 20.2291 217.627 20.5658 217.573 20.9924H220.623ZM224.265 19.6624V22.7124C224.265 22.9191 224.312 23.0691 224.405 23.1624C224.505 23.2491 224.672 23.2924 224.905 23.2924H225.605V24.2424H224.705C224.192 24.2424 223.798 24.1224 223.525 23.8824C223.252 23.6424 223.115 23.2524 223.115 22.7124V19.6624H222.465V18.7324H223.115V17.3624H224.265V18.7324H225.605V19.6624H224.265ZM226.276 21.4624C226.276 20.9091 226.389 20.4191 226.616 19.9924C226.849 19.5658 227.162 19.2358 227.556 19.0024C227.956 18.7624 228.396 18.6424 228.876 18.6424C229.309 18.6424 229.686 18.7291 230.006 18.9024C230.332 19.0691 230.592 19.2791 230.786 19.5324V18.7324H231.936V24.2424H230.786V23.4224C230.592 23.6824 230.329 23.8991 229.996 24.0724C229.662 24.2458 229.282 24.3324 228.856 24.3324C228.382 24.3324 227.949 24.2124 227.556 23.9724C227.162 23.7258 226.849 23.3858 226.616 22.9524C226.389 22.5124 226.276 22.0158 226.276 21.4624ZM230.786 21.4824C230.786 21.1024 230.706 20.7724 230.546 20.4924C230.392 20.2124 230.189 19.9991 229.936 19.8524C229.682 19.7058 229.409 19.6324 229.116 19.6324C228.822 19.6324 228.549 19.7058 228.296 19.8524C228.042 19.9924 227.836 20.2024 227.676 20.4824C227.522 20.7558 227.446 21.0824 227.446 21.4624C227.446 21.8424 227.522 22.1758 227.676 22.4624C227.836 22.7491 228.042 22.9691 228.296 23.1224C228.556 23.2691 228.829 23.3424 229.116 23.3424C229.409 23.3424 229.682 23.2691 229.936 23.1224C230.189 22.9758 230.392 22.7624 230.546 22.4824C230.706 22.1958 230.786 21.8624 230.786 21.4824ZM233.053 21.4824C233.053 20.9158 233.166 20.4191 233.393 19.9924C233.626 19.5591 233.946 19.2258 234.353 18.9924C234.76 18.7591 235.226 18.6424 235.753 18.6424C236.42 18.6424 236.97 18.8024 237.403 19.1224C237.843 19.4358 238.14 19.8858 238.293 20.4724H237.063C236.963 20.1991 236.803 19.9858 236.583 19.8324C236.363 19.6791 236.086 19.6024 235.753 19.6024C235.286 19.6024 234.913 19.7691 234.633 20.1024C234.36 20.4291 234.223 20.8891 234.223 21.4824C234.223 22.0758 234.36 22.5391 234.633 22.8724C234.913 23.2058 235.286 23.3724 235.753 23.3724C236.413 23.3724 236.85 23.0824 237.063 22.5024H238.293C238.133 23.0624 237.833 23.5091 237.393 23.8424C236.953 24.1691 236.406 24.3324 235.753 24.3324C235.226 24.3324 234.76 24.2158 234.353 23.9824C233.946 23.7424 233.626 23.4091 233.393 22.9824C233.166 22.5491 233.053 22.0491 233.053 21.4824ZM241.819 24.3324C241.299 24.3324 240.829 24.2158 240.409 23.9824C239.989 23.7424 239.659 23.4091 239.419 22.9824C239.179 22.5491 239.059 22.0491 239.059 21.4824C239.059 20.9224 239.183 20.4258 239.429 19.9924C239.676 19.5591 240.013 19.2258 240.439 18.9924C240.866 18.7591 241.343 18.6424 241.869 18.6424C242.396 18.6424 242.873 18.7591 243.299 18.9924C243.726 19.2258 244.063 19.5591 244.309 19.9924C244.556 20.4258 244.679 20.9224 244.679 21.4824C244.679 22.0424 244.553 22.5391 244.299 22.9724C244.046 23.4058 243.699 23.7424 243.259 23.9824C242.826 24.2158 242.346 24.3324 241.819 24.3324ZM241.819 23.3424C242.113 23.3424 242.386 23.2724 242.639 23.1324C242.899 22.9924 243.109 22.7824 243.269 22.5024C243.429 22.2224 243.509 21.8824 243.509 21.4824C243.509 21.0824 243.433 20.7458 243.279 20.4724C243.126 20.1924 242.923 19.9824 242.669 19.8424C242.416 19.7024 242.143 19.6324 241.849 19.6324C241.556 19.6324 241.283 19.7024 241.029 19.8424C240.783 19.9824 240.586 20.1924 240.439 20.4724C240.293 20.7458 240.219 21.0824 240.219 21.4824C240.219 22.0758 240.369 22.5358 240.669 22.8624C240.976 23.1824 241.359 23.3424 241.819 23.3424ZM248.586 18.6424C249.019 18.6424 249.406 18.7324 249.746 18.9124C250.093 19.0924 250.363 19.3591 250.556 19.7124C250.749 20.0658 250.846 20.4924 250.846 20.9924V24.2424H249.716V21.1624C249.716 20.6691 249.593 20.2924 249.346 20.0324C249.099 19.7658 248.763 19.6324 248.336 19.6324C247.909 19.6324 247.569 19.7658 247.316 20.0324C247.069 20.2924 246.946 20.6691 246.946 21.1624V24.2424H245.806V18.7324H246.946V19.3624C247.133 19.1358 247.369 18.9591 247.656 18.8324C247.949 18.7058 248.259 18.6424 248.586 18.6424ZM258.04 15.9224V25.0824H259.09V15.9224H258.04ZM258.85 19.4324V20.3024H260.51V19.4324H258.85ZM252.38 21.9724V22.8424H253.12C254.78 22.8424 256 22.7924 257.4 22.5424L257.29 21.6624C255.94 21.9124 254.74 21.9724 253.12 21.9724H252.38ZM252.38 16.7924V22.3724H253.42V17.6424H256.63V16.7924H252.38ZM261.2 20.4824V21.3224H269.48V20.4824H261.2ZM264.88 21.0224V23.0524H265.94V21.0224H264.88ZM262.22 24.0324V24.8924H268.57V24.0324H262.22ZM262.22 22.1924V24.2624H263.27V22.1924H262.22ZM265.33 16.1324C263.38 16.1324 262.09 16.8524 262.09 18.0024C262.09 19.1424 263.38 19.8624 265.33 19.8624C267.28 19.8624 268.57 19.1424 268.57 18.0024C268.57 16.8524 267.28 16.1324 265.33 16.1324ZM265.33 16.9724C266.62 16.9724 267.45 17.3524 267.45 18.0024C267.45 18.6424 266.62 19.0124 265.33 19.0124C264.05 19.0124 263.21 18.6424 263.21 18.0024C263.21 17.3524 264.05 16.9724 265.33 16.9724ZM270.409 23.1424V24.0024H278.689V23.1424H270.409ZM274.009 21.2824V23.4924H275.049V21.2824H274.009ZM271.379 16.5724V17.4124H276.659V18.6324H271.399V21.1624H272.439V19.4624H277.699V16.5724H271.379ZM271.399 20.7324V21.5824H277.909V20.7324H271.399ZM280.618 20.2424V21.0824H286.958V20.2424H280.618ZM279.608 23.0324V23.8924H287.888V23.0324H279.608ZM280.618 16.7324V20.6024H281.658V17.5924H286.878V16.7324H280.618ZM288.797 20.1124V20.8924H297.077V20.1124H288.797ZM289.757 21.5024V22.2324H295.037V22.8624H289.777V24.4924H290.817V23.5524H296.067V21.5024H289.757ZM289.777 24.2424V24.9724H296.347V24.2424H289.777ZM289.837 16.1524V16.8724H295.007V17.4824H289.847V19.0424H290.887V18.1624H296.037V16.1524H289.837ZM289.847 18.8124V19.5424H296.207V18.8124H289.847ZM306.792 15.9224V25.0824H307.832V15.9224H306.792ZM305.042 19.2724V20.1324H306.932V19.2724H305.042ZM300.662 22.0924V22.9424H301.372C303.032 22.9424 304.172 22.9024 305.492 22.6824L305.392 21.8424C304.102 22.0624 303.002 22.0924 301.372 22.0924H300.662ZM300.662 16.7324V22.3724H301.702V17.5924H304.892V16.7324H300.662ZM301.452 19.2924V20.1224H304.532V19.2924H301.452ZM315.922 15.9324V25.0724H316.982V15.9324H315.922ZM311.852 18.1924V18.8424C311.852 20.3424 310.972 21.8924 309.562 22.5324L310.132 23.3424C311.692 22.6224 312.692 20.7824 312.692 18.8424V18.1924H311.852ZM312.072 18.1924V18.8424C312.072 20.7224 313.082 22.5024 314.652 23.1824L315.222 22.3824C313.792 21.7624 312.892 20.2724 312.892 18.8424V18.1924H312.072ZM309.832 17.4724V18.3124H314.882V17.4724H309.832ZM311.852 16.1224V17.9224H312.902V16.1224H311.852ZM324.691 15.9324V25.0724H325.731V15.9324H324.691ZM325.491 19.6024V20.4724H327.151V19.6024H325.491ZM318.601 17.3424V18.1824H323.961V17.3424H318.601ZM321.311 18.8424C320.001 18.8424 319.041 19.7224 319.041 20.9724C319.041 22.2324 320.001 23.1124 321.311 23.1124C322.611 23.1124 323.571 22.2324 323.571 20.9724C323.571 19.7224 322.611 18.8424 321.311 18.8424ZM321.311 19.7024C322.041 19.7024 322.571 20.2024 322.571 20.9724C322.571 21.7424 322.041 22.2524 321.311 22.2524C320.571 22.2524 320.041 21.7424 320.041 20.9724C320.041 20.2024 320.571 19.7024 321.311 19.7024ZM320.771 16.0624V17.6924H321.821V16.0624H320.771ZM331.95 17.8924V18.7424H334.59V17.8924H331.95ZM331.95 20.7624V21.6124H334.59V20.7624H331.95ZM330.31 16.6024C328.96 16.6024 328 17.8524 328 19.8224C328 21.7924 328.96 23.0524 330.31 23.0524C331.66 23.0524 332.62 21.7924 332.62 19.8224C332.62 17.8524 331.66 16.6024 330.31 16.6024ZM330.31 17.5524C331.1 17.5524 331.63 18.4024 331.63 19.8224C331.63 21.2524 331.1 22.1124 330.31 22.1124C329.53 22.1124 328.99 21.2524 328.99 19.8224C328.99 18.4024 329.53 17.5524 330.31 17.5524ZM334.39 15.9224V25.0824H335.43V15.9224H334.39ZM116.617 32.1924V32.9924H123.367V32.1924H116.617ZM116.667 34.4724V35.2724H123.317V34.4724H116.667ZM117.897 32.5024V34.9924H118.947V32.5024H117.897ZM121.037 32.5024V34.9924H122.087V32.5024H121.037ZM115.867 35.9024V36.7324H124.127V35.9024H115.867ZM116.847 37.4024V38.1624H122.067V38.8024H116.857V40.5124H117.897V39.5224H123.097V37.4024H116.847ZM116.857 40.2124V40.9924H123.357V40.2124H116.857ZM125.347 38.0124V38.8724H125.977C127.117 38.8724 128.147 38.8424 129.377 38.6224L129.287 37.7724C128.087 37.9824 127.087 38.0124 125.977 38.0124H125.347ZM125.327 32.8924V33.7324H127.567V35.3724H125.347V38.3524H126.367V36.2124H128.577V32.8924H125.327ZM131.867 31.9324V41.0724H132.867V31.9324H131.867ZM128.987 35.1324V35.9924H130.437V35.1324H128.987ZM130.017 32.1324V40.6124H130.987V32.1324H130.017ZM140.746 31.9224V41.0824H141.796V31.9224H140.746ZM136.926 32.6024C135.566 32.6024 134.576 33.8524 134.576 35.8224C134.576 37.7924 135.566 39.0524 136.926 39.0524C138.296 39.0524 139.286 37.7924 139.286 35.8224C139.286 33.8524 138.296 32.6024 136.926 32.6024ZM136.926 33.5524C137.726 33.5524 138.276 34.4024 138.276 35.8224C138.276 37.2524 137.726 38.1124 136.926 38.1124C136.126 38.1124 135.576 37.2524 135.576 35.8224C135.576 34.4024 136.126 33.5524 136.926 33.5524ZM147.015 32.5124V33.2024C147.015 34.6424 145.555 36.0624 143.745 36.3924L144.205 37.2624C146.265 36.8224 147.925 35.1824 147.925 33.2024V32.5124H147.015ZM147.215 32.5124V33.2024C147.215 35.2024 148.875 36.8224 150.935 37.2624L151.395 36.3924C149.585 36.0624 148.125 34.6624 148.125 33.2024V32.5124H147.215ZM143.475 39.0324V39.8924H151.755V39.0324H143.475ZM153.694 36.5824V37.4124H160.034V36.5824H153.694ZM152.674 39.1424V39.9924H160.954V39.1424H152.674ZM156.274 37.0024V39.5224H157.324V37.0024H156.274ZM153.694 32.6224V36.8924H154.754V33.4724H159.944V32.6224H153.694ZM154.424 34.5724V35.4024H159.744V34.5724H154.424ZM164.334 32.6024C162.984 32.6024 162.024 33.8524 162.024 35.8224C162.024 37.7924 162.984 39.0524 164.334 39.0524C165.684 39.0524 166.644 37.7924 166.644 35.8224C166.644 33.8524 165.684 32.6024 164.334 32.6024ZM164.334 33.5524C165.124 33.5524 165.654 34.4024 165.654 35.8224C165.654 37.2524 165.124 38.1124 164.334 38.1124C163.554 38.1124 163.024 37.2524 163.024 35.8224C163.024 34.4024 163.554 33.5524 164.334 33.5524ZM168.414 31.9224V41.0824H169.454V31.9224H168.414ZM166.324 35.3324V36.1724H168.864V35.3324H166.324ZM174.753 35.4024V36.2524H176.373V35.4024H174.753ZM177.873 31.9324V41.0724H178.873V31.9324H177.873ZM176.033 32.1024V40.6324H177.023V32.1024H176.033ZM173.123 32.6424C171.933 32.6424 171.163 33.8824 171.163 35.8824C171.163 37.8924 171.933 39.1324 173.123 39.1324C174.323 39.1324 175.093 37.8924 175.093 35.8824C175.093 33.8824 174.323 32.6424 173.123 32.6424ZM173.123 33.6224C173.753 33.6224 174.133 34.4424 174.133 35.8824C174.133 37.3224 173.753 38.1424 173.123 38.1424C172.503 38.1424 172.123 37.3224 172.123 35.8824C172.123 34.4424 172.503 33.6224 173.123 33.6224ZM184.852 34.9224V35.7724H187.332V34.9224H184.852ZM182.522 32.6824V34.1824C182.522 35.8924 181.642 37.6524 180.202 38.3424L180.862 39.1824C182.432 38.3724 183.372 36.3324 183.372 34.1824V32.6824H182.522ZM182.732 32.6824V34.1824C182.732 36.3024 183.642 38.2324 185.222 39.0224L185.852 38.1824C184.442 37.5324 183.572 35.8724 183.572 34.1824V32.6824H182.732ZM186.812 31.9224V41.0824H187.852V31.9224H186.812ZM199.327 33.2924V40.2424H198.187V35.4824L196.067 40.2424H195.277L193.147 35.4824V40.2424H192.007V33.2924H193.237L195.677 38.7424L198.107 33.2924H199.327ZM205.876 37.3524C205.876 37.5591 205.862 37.7458 205.836 37.9124H201.626C201.659 38.3524 201.822 38.7058 202.116 38.9724C202.409 39.2391 202.769 39.3724 203.196 39.3724C203.809 39.3724 204.242 39.1158 204.496 38.6024H205.726C205.559 39.1091 205.256 39.5258 204.816 39.8524C204.382 40.1724 203.842 40.3324 203.196 40.3324C202.669 40.3324 202.196 40.2158 201.776 39.9824C201.362 39.7424 201.036 39.4091 200.796 38.9824C200.562 38.5491 200.446 38.0491 200.446 37.4824C200.446 36.9158 200.559 36.4191 200.786 35.9924C201.019 35.5591 201.342 35.2258 201.756 34.9924C202.176 34.7591 202.656 34.6424 203.196 34.6424C203.716 34.6424 204.179 34.7558 204.586 34.9824C204.992 35.2091 205.309 35.5291 205.536 35.9424C205.762 36.3491 205.876 36.8191 205.876 37.3524ZM204.686 36.9924C204.679 36.5724 204.529 36.2358 204.236 35.9824C203.942 35.7291 203.579 35.6024 203.146 35.6024C202.752 35.6024 202.416 35.7291 202.136 35.9824C201.856 36.2291 201.689 36.5658 201.636 36.9924H204.686ZM208.328 35.6624V38.7124C208.328 38.9191 208.374 39.0691 208.468 39.1624C208.568 39.2491 208.734 39.2924 208.968 39.2924H209.668V40.2424H208.768C208.254 40.2424 207.861 40.1224 207.588 39.8824C207.314 39.6424 207.178 39.2524 207.178 38.7124V35.6624H206.528V34.7324H207.178V33.3624H208.328V34.7324H209.668V35.6624H208.328ZM210.338 37.4624C210.338 36.9091 210.452 36.4191 210.678 35.9924C210.912 35.5658 211.225 35.2358 211.618 35.0024C212.018 34.7624 212.458 34.6424 212.938 34.6424C213.372 34.6424 213.748 34.7291 214.068 34.9024C214.395 35.0691 214.655 35.2791 214.848 35.5324V34.7324H215.998V40.2424H214.848V39.4224C214.655 39.6824 214.392 39.8991 214.058 40.0724C213.725 40.2458 213.345 40.3324 212.918 40.3324C212.445 40.3324 212.012 40.2124 211.618 39.9724C211.225 39.7258 210.912 39.3858 210.678 38.9524C210.452 38.5124 210.338 38.0158 210.338 37.4624ZM214.848 37.4824C214.848 37.1024 214.768 36.7724 214.608 36.4924C214.455 36.2124 214.252 35.9991 213.998 35.8524C213.745 35.7058 213.472 35.6324 213.178 35.6324C212.885 35.6324 212.612 35.7058 212.358 35.8524C212.105 35.9924 211.898 36.2024 211.738 36.4824C211.585 36.7558 211.508 37.0824 211.508 37.4624C211.508 37.8424 211.585 38.1758 211.738 38.4624C211.898 38.7491 212.105 38.9691 212.358 39.1224C212.618 39.2691 212.892 39.3424 213.178 39.3424C213.472 39.3424 213.745 39.2691 213.998 39.1224C214.252 38.9758 214.455 38.7624 214.608 38.4824C214.768 38.1958 214.848 37.8624 214.848 37.4824ZM217.116 37.4824C217.116 36.9158 217.229 36.4191 217.456 35.9924C217.689 35.5591 218.009 35.2258 218.416 34.9924C218.822 34.7591 219.289 34.6424 219.816 34.6424C220.482 34.6424 221.032 34.8024 221.466 35.1224C221.906 35.4358 222.202 35.8858 222.356 36.4724H221.126C221.026 36.1991 220.866 35.9858 220.646 35.8324C220.426 35.6791 220.149 35.6024 219.816 35.6024C219.349 35.6024 218.976 35.7691 218.696 36.1024C218.422 36.4291 218.286 36.8891 218.286 37.4824C218.286 38.0758 218.422 38.5391 218.696 38.8724C218.976 39.2058 219.349 39.3724 219.816 39.3724C220.476 39.3724 220.912 39.0824 221.126 38.5024H222.356C222.196 39.0624 221.896 39.5091 221.456 39.8424C221.016 40.1691 220.469 40.3324 219.816 40.3324C219.289 40.3324 218.822 40.2158 218.416 39.9824C218.009 39.7424 217.689 39.4091 217.456 38.9824C217.229 38.5491 217.116 38.0491 217.116 37.4824ZM225.882 40.3324C225.362 40.3324 224.892 40.2158 224.472 39.9824C224.052 39.7424 223.722 39.4091 223.482 38.9824C223.242 38.5491 223.122 38.0491 223.122 37.4824C223.122 36.9224 223.245 36.4258 223.492 35.9924C223.738 35.5591 224.075 35.2258 224.502 34.9924C224.928 34.7591 225.405 34.6424 225.932 34.6424C226.458 34.6424 226.935 34.7591 227.362 34.9924C227.788 35.2258 228.125 35.5591 228.372 35.9924C228.618 36.4258 228.742 36.9224 228.742 37.4824C228.742 38.0424 228.615 38.5391 228.362 38.9724C228.108 39.4058 227.762 39.7424 227.322 39.9824C226.888 40.2158 226.408 40.3324 225.882 40.3324ZM225.882 39.3424C226.175 39.3424 226.448 39.2724 226.702 39.1324C226.962 38.9924 227.172 38.7824 227.332 38.5024C227.492 38.2224 227.572 37.8824 227.572 37.4824C227.572 37.0824 227.495 36.7458 227.342 36.4724C227.188 36.1924 226.985 35.9824 226.732 35.8424C226.478 35.7024 226.205 35.6324 225.912 35.6324C225.618 35.6324 225.345 35.7024 225.092 35.8424C224.845 35.9824 224.648 36.1924 224.502 36.4724C224.355 36.7458 224.282 37.0824 224.282 37.4824C224.282 38.0758 224.432 38.5358 224.732 38.8624C225.038 39.1824 225.422 39.3424 225.882 39.3424ZM232.649 34.6424C233.082 34.6424 233.469 34.7324 233.809 34.9124C234.155 35.0924 234.425 35.3591 234.619 35.7124C234.812 36.0658 234.909 36.4924 234.909 36.9924V40.2424H233.779V37.1624C233.779 36.6691 233.655 36.2924 233.409 36.0324C233.162 35.7658 232.825 35.6324 232.399 35.6324C231.972 35.6324 231.632 35.7658 231.379 36.0324C231.132 36.2924 231.009 36.6691 231.009 37.1624V40.2424H229.869V34.7324H231.009V35.3624C231.195 35.1358 231.432 34.9591 231.719 34.8324C232.012 34.7058 232.322 34.6424 232.649 34.6424ZM238.393 33.3024V34.5824C238.393 36.1424 237.443 37.8524 236.033 38.5024L236.633 39.3324C238.203 38.5824 239.233 36.5924 239.233 34.5824V33.3024H238.393ZM238.613 33.3024V34.5824C238.613 36.5424 239.643 38.3924 241.233 39.1024L241.813 38.2724C240.383 37.6724 239.443 36.0924 239.443 34.5824V33.3024H238.613ZM236.363 32.8424V33.7124H241.473V32.8424H236.363ZM242.543 31.9324V41.0724H243.593V31.9324H242.543ZM251.342 31.9324V36.8824H252.402V31.9324H251.342ZM252.112 34.0024V34.8724H253.692V34.0024H252.112ZM248.772 32.4524V33.0024C248.772 34.4424 247.592 35.6124 245.252 36.1424L245.642 36.9924C248.362 36.3524 249.912 34.8124 249.912 32.4524H248.772ZM245.692 32.4524V33.2924H249.442V32.4524H245.692ZM246.542 37.2724V40.9624H252.402V37.2724H251.362V38.2924H247.582V37.2724H246.542ZM247.582 39.1124H251.362V40.1224H247.582V39.1124ZM258.591 32.0724C256.541 32.0724 255.341 32.6324 255.341 33.6524C255.341 34.6624 256.541 35.2224 258.591 35.2224C260.641 35.2224 261.851 34.6624 261.851 33.6524C261.851 32.6324 260.641 32.0724 258.591 32.0724ZM258.591 32.8524C260.011 32.8524 260.761 33.1324 260.761 33.6524C260.761 34.1724 260.011 34.4424 258.591 34.4424C257.181 34.4424 256.421 34.1724 256.421 33.6524C256.421 33.1324 257.181 32.8524 258.591 32.8524ZM254.461 35.7524V36.5824H262.721V35.7524H254.461ZM255.441 37.2524V38.0324H260.661V38.6924H255.451V40.4124H256.491V39.4324H261.691V37.2524H255.441ZM255.451 40.1824V40.9924H261.951V40.1824H255.451ZM270.587 33.4424V34.2924H272.887V33.4424H270.587ZM272.437 31.9324V36.6124H273.487V31.9324H272.437ZM267.537 37.0424V37.8624H272.447V38.5824H267.557V40.6324H268.587V39.3524H273.487V37.0424H267.537ZM267.557 40.1324V40.9624H273.787V40.1324H267.557ZM268.107 32.2224V32.9924C268.107 34.2424 267.317 35.3724 265.877 35.8324L266.417 36.6624C268.037 36.1124 268.957 34.6924 268.957 32.9924V32.2224H268.107ZM268.297 32.2224V32.9924C268.297 34.5824 269.207 35.9324 270.767 36.4624L271.307 35.6524C269.937 35.2124 269.147 34.1324 269.147 32.9924V32.2224H268.297ZM281.586 31.9324V41.0724H282.646V31.9324H281.586ZM277.516 34.1924V34.8424C277.516 36.3424 276.636 37.8924 275.226 38.5324L275.796 39.3424C277.356 38.6224 278.356 36.7824 278.356 34.8424V34.1924H277.516ZM277.736 34.1924V34.8424C277.736 36.7224 278.746 38.5024 280.316 39.1824L280.886 38.3824C279.456 37.7624 278.556 36.2724 278.556 34.8424V34.1924H277.736ZM275.496 33.4724V34.3124H280.546V33.4724H275.496ZM277.516 32.1224V33.9224H278.566V32.1224H277.516ZM284.295 33.4124V34.2524H288.755V33.4124H284.295ZM286.535 34.7724C285.395 34.7724 284.555 35.6524 284.555 36.9024C284.555 38.1524 285.395 39.0224 286.535 39.0224C287.685 39.0224 288.515 38.1524 288.515 36.9024C288.515 35.6524 287.685 34.7724 286.535 34.7724ZM286.535 35.6524C287.145 35.6524 287.585 36.1524 287.585 36.9024C287.585 37.6624 287.145 38.1424 286.535 38.1424C285.925 38.1424 285.485 37.6624 285.485 36.9024C285.485 36.1524 285.925 35.6524 286.535 35.6524ZM291.095 31.9324V41.0724H292.095V31.9324H291.095ZM289.795 35.7224V36.5724H291.425V35.7224H289.795ZM289.155 32.1224V40.6524H290.135V32.1224H289.155ZM286.025 32.1924V33.9324H287.055V32.1924H286.025ZM299.29 32.8824V33.2224C299.29 34.3024 297.99 35.3424 296.2 35.5824L296.6 36.4024C298.65 36.0924 300.2 34.8424 300.2 33.2224V32.8824H299.29ZM299.58 32.8824V33.2224C299.58 34.8424 301.12 36.0924 303.18 36.4024L303.57 35.5824C301.79 35.3424 300.48 34.3024 300.48 33.2224V32.8824H299.58ZM299.34 37.6524V41.0724H300.38V37.6524H299.34ZM295.76 37.0624V37.9124H304.02V37.0624H295.76ZM296.51 32.4524V33.2924H303.24V32.4524H296.51ZM308.55 35.1124V35.9724H310.2V35.1124H308.55ZM306.74 32.7624V34.4124C306.74 35.9724 306.11 37.6024 304.82 38.3824L305.46 39.1724C306.85 38.3224 307.55 36.3924 307.55 34.4124V32.7624H306.74ZM306.96 32.7624V34.3724C306.96 36.2324 307.57 38.1224 308.94 38.9724L309.53 38.1524C308.31 37.3824 307.75 35.8424 307.75 34.3724V32.7624H306.96ZM311.76 31.9324V41.0724H312.76V31.9324H311.76ZM309.9 32.1024V40.6324H310.88V32.1024H309.9ZM316.089 36.6124V39.2624H317.129V36.6124H316.089ZM319.439 36.6124V39.2624H320.489V36.6124H319.439ZM314.159 39.0924V39.9524H322.439V39.0924H314.159ZM318.279 32.4524C316.329 32.4524 314.919 33.3924 314.919 34.8524C314.919 36.3024 316.329 37.2424 318.279 37.2424C320.229 37.2424 321.639 36.3024 321.639 34.8524C321.639 33.3924 320.229 32.4524 318.279 32.4524ZM318.279 33.2724C319.659 33.2724 320.619 33.8824 320.619 34.8524C320.619 35.8124 319.659 36.4224 318.279 36.4224C316.899 36.4224 315.939 35.8124 315.939 34.8524C315.939 33.8824 316.899 33.2724 318.279 33.2724ZM324.388 40.3824C324.818 40.3824 325.158 40.0424 325.158 39.5724C325.158 39.0924 324.818 38.7624 324.388 38.7624C323.948 38.7624 323.618 39.0924 323.618 39.5724C323.618 40.0424 323.948 40.3824 324.388 40.3824Z" fill="black"/>
<path d="M118.197 98.2275V99.5075C118.197 101.067 117.247 102.777 115.837 103.427L116.437 104.257C118.007 103.507 119.037 101.517 119.037 99.5075V98.2275H118.197ZM118.417 98.2275V99.5075C118.417 101.467 119.447 103.317 121.037 104.027L121.617 103.197C120.187 102.597 119.247 101.017 119.247 99.5075V98.2275H118.417ZM116.167 97.7675V98.6375H121.277V97.7675H116.167ZM122.347 96.8575V105.997H123.397V96.8575H122.347ZM131.147 96.8575V101.807H132.207V96.8575H131.147ZM131.917 98.9275V99.7975H133.497V98.9275H131.917ZM128.577 97.3775V97.9275C128.577 99.3675 127.397 100.537 125.057 101.067L125.447 101.917C128.167 101.277 129.717 99.7375 129.717 97.3775H128.577ZM125.497 97.3775V98.2175H129.247V97.3775H125.497ZM126.347 102.197V105.887H132.207V102.197H131.167V103.217H127.387V102.197H126.347ZM127.387 104.037H131.167V105.047H127.387V104.037ZM138.312 97.4175V98.5675C138.312 99.5975 137.692 100.757 136.462 101.297L137.012 102.107C138.422 101.497 139.132 100.017 139.132 98.5675V97.4175H138.312ZM138.492 97.4175V98.5675C138.492 99.9775 139.182 101.297 140.542 101.837L141.102 101.037C139.922 100.577 139.322 99.5675 139.322 98.5675V97.4175H138.492ZM143.262 96.8675V102.477H144.252V96.8675H143.262ZM141.962 99.2075V100.057H143.562V99.2075H141.962ZM141.312 97.0375V102.187H142.292V97.0375H141.312ZM141.212 102.647C139.302 102.647 138.122 103.267 138.122 104.317C138.122 105.367 139.302 105.987 141.212 105.987C143.102 105.987 144.302 105.367 144.302 104.317C144.302 103.267 143.102 102.647 141.212 102.647ZM141.212 103.447C142.492 103.447 143.252 103.757 143.252 104.317C143.252 104.877 142.492 105.187 141.212 105.187C139.922 105.187 139.152 104.877 139.152 104.317C139.152 103.757 139.922 103.447 141.212 103.447ZM147.941 97.3575V98.2375C147.941 99.5775 147.141 100.807 145.671 101.297L146.221 102.147C147.891 101.557 148.811 100.037 148.811 98.2375V97.3575H147.941ZM148.141 97.3575V98.1975C148.141 99.9075 149.011 101.307 150.581 101.877L151.141 101.057C149.751 100.597 148.991 99.4575 148.991 98.1975V97.3575H148.141ZM152.241 96.8575V102.237H153.291V96.8575H152.241ZM150.241 102.497C148.331 102.497 147.161 103.137 147.161 104.237C147.161 105.347 148.331 105.987 150.241 105.987C152.151 105.987 153.321 105.347 153.321 104.237C153.321 103.137 152.151 102.497 150.241 102.497ZM150.241 103.317C151.541 103.317 152.281 103.647 152.281 104.237C152.281 104.837 151.541 105.167 150.241 105.167C148.951 105.167 148.201 104.837 148.201 104.237C148.201 103.647 148.951 103.317 150.241 103.317ZM150.391 98.6675V99.5275H152.421V98.6675H150.391ZM157.637 97.4275V101.217H161.967V97.4275H157.637ZM160.947 98.2575V100.397H158.657V98.2575H160.947ZM163.647 96.8575V102.077H164.697V96.8575H163.647ZM161.177 103.197V103.347C161.177 104.147 159.977 104.997 158.207 105.177L158.547 105.967C160.617 105.737 162.077 104.657 162.077 103.347V103.197H161.177ZM161.347 103.197V103.347C161.347 104.617 162.787 105.737 164.857 105.967L165.207 105.177C163.447 104.987 162.257 104.117 162.257 103.347V103.197H161.347ZM158.567 102.637V103.437H164.867V102.637H158.567ZM161.187 101.817V103.007H162.257V101.817H161.187ZM172.202 101.257V102.597H173.242V101.257H172.202ZM169.682 96.9975V100.037H175.802V96.9975H174.762V97.7375H170.712V96.9975H169.682ZM170.712 98.5175H174.762V99.2375H170.712V98.5175ZM168.602 100.657V101.497H176.862V100.657H168.602ZM169.582 102.237V103.017H174.802V103.667H169.592V105.397H170.632V104.407H175.832V102.237H169.582ZM169.592 105.117V105.917H176.092V105.117H169.592ZM184.331 96.8475V106.007H185.371V96.8475H184.331ZM182.731 100.267V101.117H184.561V100.267H182.731ZM178.131 102.987V103.857H178.851C180.441 103.857 181.631 103.797 183.001 103.567L182.901 102.707C181.571 102.947 180.411 102.987 178.851 102.987H178.131ZM178.111 97.6675V98.5175H181.181V100.137H178.131V103.247H179.171V100.977H182.211V97.6675H178.111ZM190.61 102.007V104.197H191.65V102.007H190.61ZM191.13 97.3975C189.2 97.3975 187.77 98.3675 187.77 99.8475C187.77 101.337 189.2 102.297 191.13 102.297C193.07 102.297 194.49 101.337 194.49 99.8475C194.49 98.3675 193.07 97.3975 191.13 97.3975ZM191.13 98.2275C192.5 98.2275 193.47 98.8575 193.47 99.8475C193.47 100.847 192.5 101.467 191.13 101.467C189.77 101.467 188.79 100.847 188.79 99.8475C188.79 98.8575 189.77 98.2275 191.13 98.2275ZM187.01 104.017V104.877H195.29V104.017H187.01ZM202.7 96.8575V105.997H203.75V96.8575H202.7ZM200.02 97.8275V98.0075C200.02 100.447 198.91 102.257 196.28 103.527L196.83 104.367C199.97 102.837 201.05 100.537 201.05 97.8275H200.02ZM196.73 97.8275V98.6675H200.49V97.8275H196.73ZM208.065 97.8575V98.6875H215.455V97.8575H208.065ZM207.655 102.777V103.627H215.935V102.777H207.655ZM211.255 103.497V106.007H212.295V103.497H211.255ZM211.775 99.1475C209.865 99.1475 208.735 99.6975 208.735 100.687C208.735 101.677 209.865 102.237 211.775 102.237C213.685 102.237 214.815 101.677 214.815 100.687C214.815 99.6975 213.685 99.1475 211.775 99.1475ZM211.775 99.9275C213.055 99.9275 213.735 100.187 213.735 100.687C213.735 101.187 213.055 101.447 211.775 101.447C210.505 101.447 209.825 101.187 209.825 100.687C209.825 100.187 210.505 99.9275 211.775 99.9275ZM211.255 96.8275V98.4175H212.295V96.8275H211.255ZM225.14 96.8575V105.997H226.18V96.8575H225.14ZM225.94 100.527V101.397H227.6V100.527H225.94ZM219.05 98.2675V99.1075H224.41V98.2675H219.05ZM221.76 99.7675C220.45 99.7675 219.49 100.647 219.49 101.897C219.49 103.157 220.45 104.037 221.76 104.037C223.06 104.037 224.02 103.157 224.02 101.897C224.02 100.647 223.06 99.7675 221.76 99.7675ZM221.76 100.627C222.49 100.627 223.02 101.127 223.02 101.897C223.02 102.667 222.49 103.177 221.76 103.177C221.02 103.177 220.49 102.667 220.49 101.897C220.49 101.127 221.02 100.627 221.76 100.627ZM221.22 96.9875V98.6175H222.27V96.9875H221.22ZM234.379 96.8575V103.467H235.429V96.8575H234.379ZM235.119 99.4675V100.337H236.719V99.4675H235.119ZM228.679 101.057V101.907H229.409C231.379 101.907 232.439 101.857 233.639 101.597L233.529 100.757C232.359 101.007 231.339 101.057 229.409 101.057H228.679ZM228.679 97.6175V101.507H229.719V98.4675H232.739V97.6175H228.679ZM229.649 104.967V105.817H235.799V104.967H229.649ZM229.649 102.787V105.377H230.699V102.787H229.649ZM240.035 97.8575V103.617H243.575V97.8575H240.035ZM242.595 98.6875V102.797H241.015V98.6875H242.595ZM246.545 96.8575V105.997H247.545V96.8575H246.545ZM243.045 100.247V101.097H245.125V100.247H243.045ZM244.705 97.0275V105.557H245.695V97.0275H244.705ZM249.964 99.8475V100.697H256.254V99.8475H249.964ZM249.964 97.2975V100.237H251.014V97.2975H249.964ZM248.944 101.867V102.717H257.204V101.867H248.944ZM250.964 102.177V105.997H252.004V102.177H250.964ZM254.134 102.177V105.997H255.174V102.177H254.134ZM264.173 96.8575V105.997H265.223V96.8575H264.173ZM264.983 100.367V101.247H266.643V100.367H264.983ZM258.463 97.6075V103.837H262.803V97.6075H261.763V99.9375H259.503V97.6075H258.463ZM259.503 100.757H261.763V102.987H259.503V100.757ZM271.022 100.327V101.177H272.642V100.327H271.022ZM274.142 96.8575V105.997H275.142V96.8575H274.142ZM272.302 97.0275V105.557H273.292V97.0275H272.302ZM269.392 97.5675C268.202 97.5675 267.432 98.8075 267.432 100.807C267.432 102.817 268.202 104.057 269.392 104.057C270.592 104.057 271.362 102.817 271.362 100.807C271.362 98.8075 270.592 97.5675 269.392 97.5675ZM269.392 98.5475C270.022 98.5475 270.402 99.3675 270.402 100.807C270.402 102.247 270.022 103.067 269.392 103.067C268.772 103.067 268.392 102.247 268.392 100.807C268.392 99.3675 268.772 98.5475 269.392 98.5475ZM281.122 99.8475V100.697H283.602V99.8475H281.122ZM278.792 97.6075V99.1075C278.792 100.817 277.912 102.577 276.472 103.267L277.132 104.107C278.702 103.297 279.642 101.257 279.642 99.1075V97.6075H278.792ZM279.002 97.6075V99.1075C279.002 101.227 279.912 103.157 281.492 103.947L282.122 103.107C280.712 102.457 279.842 100.797 279.842 99.1075V97.6075H279.002ZM283.082 96.8475V106.007H284.122V96.8475H283.082ZM118.457 121.237C117.991 121.237 117.571 121.157 117.197 120.997C116.824 120.831 116.531 120.597 116.317 120.297C116.104 119.997 115.997 119.647 115.997 119.247H117.217C117.244 119.547 117.361 119.794 117.567 119.987C117.781 120.181 118.077 120.277 118.457 120.277C118.851 120.277 119.157 120.184 119.377 119.997C119.597 119.804 119.707 119.557 119.707 119.257C119.707 119.024 119.637 118.834 119.497 118.687C119.364 118.541 119.194 118.427 118.987 118.347C118.787 118.267 118.507 118.181 118.147 118.087C117.694 117.967 117.324 117.847 117.037 117.727C116.757 117.601 116.517 117.407 116.317 117.147C116.117 116.887 116.017 116.541 116.017 116.107C116.017 115.707 116.117 115.357 116.317 115.057C116.517 114.757 116.797 114.527 117.157 114.367C117.517 114.207 117.934 114.127 118.407 114.127C119.081 114.127 119.631 114.297 120.057 114.637C120.491 114.971 120.731 115.431 120.777 116.017H119.517C119.497 115.764 119.377 115.547 119.157 115.367C118.937 115.187 118.647 115.097 118.287 115.097C117.961 115.097 117.694 115.181 117.487 115.347C117.281 115.514 117.177 115.754 117.177 116.067C117.177 116.281 117.241 116.457 117.367 116.597C117.501 116.731 117.667 116.837 117.867 116.917C118.067 116.997 118.341 117.084 118.687 117.177C119.147 117.304 119.521 117.431 119.807 117.557C120.101 117.684 120.347 117.881 120.547 118.147C120.754 118.407 120.857 118.757 120.857 119.197C120.857 119.551 120.761 119.884 120.567 120.197C120.381 120.511 120.104 120.764 119.737 120.957C119.377 121.144 118.951 121.237 118.457 121.237ZM127.253 118.277C127.253 118.484 127.239 118.671 127.213 118.837H123.003C123.036 119.277 123.199 119.631 123.493 119.897C123.786 120.164 124.146 120.297 124.573 120.297C125.186 120.297 125.619 120.041 125.873 119.527H127.103C126.936 120.034 126.633 120.451 126.193 120.777C125.759 121.097 125.219 121.257 124.573 121.257C124.046 121.257 123.573 121.141 123.153 120.907C122.739 120.667 122.413 120.334 122.173 119.907C121.939 119.474 121.823 118.974 121.823 118.407C121.823 117.841 121.936 117.344 122.163 116.917C122.396 116.484 122.719 116.151 123.133 115.917C123.553 115.684 124.033 115.567 124.573 115.567C125.093 115.567 125.556 115.681 125.963 115.907C126.369 116.134 126.686 116.454 126.913 116.867C127.139 117.274 127.253 117.744 127.253 118.277ZM126.063 117.917C126.056 117.497 125.906 117.161 125.613 116.907C125.319 116.654 124.956 116.527 124.523 116.527C124.129 116.527 123.793 116.654 123.513 116.907C123.233 117.154 123.066 117.491 123.013 117.917H126.063ZM129.705 116.587V119.637C129.705 119.844 129.751 119.994 129.845 120.087C129.945 120.174 130.111 120.217 130.345 120.217H131.045V121.167H130.145C129.631 121.167 129.238 121.047 128.965 120.807C128.691 120.567 128.555 120.177 128.555 119.637V116.587H127.905V115.657H128.555V114.287H129.705V115.657H131.045V116.587H129.705ZM133.425 116.587V119.637C133.425 119.844 133.472 119.994 133.565 120.087C133.665 120.174 133.832 120.217 134.065 120.217H134.765V121.167H133.865C133.352 121.167 132.959 121.047 132.685 120.807C132.412 120.567 132.275 120.177 132.275 119.637V116.587H131.625V115.657H132.275V114.287H133.425V115.657H134.765V116.587H133.425ZM136.396 114.927C136.189 114.927 136.016 114.857 135.876 114.717C135.736 114.577 135.666 114.404 135.666 114.197C135.666 113.991 135.736 113.817 135.876 113.677C136.016 113.537 136.189 113.467 136.396 113.467C136.596 113.467 136.766 113.537 136.906 113.677C137.046 113.817 137.116 113.991 137.116 114.197C137.116 114.404 137.046 114.577 136.906 114.717C136.766 114.857 136.596 114.927 136.396 114.927ZM136.956 115.657V121.167H135.816V115.657H136.956ZM141.233 115.567C141.666 115.567 142.053 115.657 142.393 115.837C142.739 116.017 143.009 116.284 143.203 116.637C143.396 116.991 143.493 117.417 143.493 117.917V121.167H142.363V118.087C142.363 117.594 142.239 117.217 141.993 116.957C141.746 116.691 141.409 116.557 140.983 116.557C140.556 116.557 140.216 116.691 139.963 116.957C139.716 117.217 139.593 117.594 139.593 118.087V121.167H138.453V115.657H139.593V116.287C139.779 116.061 140.016 115.884 140.303 115.757C140.596 115.631 140.906 115.567 141.233 115.567ZM147.167 115.567C147.593 115.567 147.97 115.654 148.297 115.827C148.63 115.994 148.89 116.204 149.077 116.457V115.657H150.227V121.257C150.227 121.764 150.12 122.214 149.907 122.607C149.693 123.007 149.383 123.321 148.977 123.547C148.577 123.774 148.097 123.887 147.537 123.887C146.79 123.887 146.17 123.711 145.677 123.357C145.183 123.011 144.903 122.537 144.837 121.937H145.967C146.053 122.224 146.237 122.454 146.517 122.627C146.803 122.807 147.143 122.897 147.537 122.897C147.997 122.897 148.367 122.757 148.647 122.477C148.933 122.197 149.077 121.791 149.077 121.257V120.337C148.883 120.597 148.62 120.817 148.287 120.997C147.96 121.171 147.587 121.257 147.167 121.257C146.687 121.257 146.247 121.137 145.847 120.897C145.453 120.651 145.14 120.311 144.907 119.877C144.68 119.437 144.567 118.941 144.567 118.387C144.567 117.834 144.68 117.344 144.907 116.917C145.14 116.491 145.453 116.161 145.847 115.927C146.247 115.687 146.687 115.567 147.167 115.567ZM149.077 118.407C149.077 118.027 148.997 117.697 148.837 117.417C148.683 117.137 148.48 116.924 148.227 116.777C147.973 116.631 147.7 116.557 147.407 116.557C147.113 116.557 146.84 116.631 146.587 116.777C146.333 116.917 146.127 117.127 145.967 117.407C145.813 117.681 145.737 118.007 145.737 118.387C145.737 118.767 145.813 119.101 145.967 119.387C146.127 119.674 146.333 119.894 146.587 120.047C146.847 120.194 147.12 120.267 147.407 120.267C147.7 120.267 147.973 120.194 148.227 120.047C148.48 119.901 148.683 119.687 148.837 119.407C148.997 119.121 149.077 118.787 149.077 118.407ZM155.554 112.997C153.504 112.997 152.304 113.557 152.304 114.577C152.304 115.587 153.504 116.147 155.554 116.147C157.604 116.147 158.814 115.587 158.814 114.577C158.814 113.557 157.604 112.997 155.554 112.997ZM155.554 113.777C156.974 113.777 157.724 114.057 157.724 114.577C157.724 115.097 156.974 115.367 155.554 115.367C154.144 115.367 153.384 115.097 153.384 114.577C153.384 114.057 154.144 113.777 155.554 113.777ZM151.424 116.677V117.507H159.684V116.677H151.424ZM152.404 118.177V118.957H157.624V119.617H152.414V121.337H153.454V120.357H158.654V118.177H152.404ZM152.414 121.107V121.917H158.914V121.107H152.414ZM169.419 112.847V122.007H170.459V112.847H169.419ZM167.669 116.197V117.057H169.559V116.197H167.669ZM163.289 119.017V119.867H163.999C165.659 119.867 166.799 119.827 168.119 119.607L168.019 118.767C166.729 118.987 165.629 119.017 163.999 119.017H163.289ZM163.289 113.657V119.297H164.329V114.517H167.519V113.657H163.289ZM164.079 116.217V117.047H167.159V116.217H164.079ZM178.549 112.857V121.997H179.609V112.857H178.549ZM174.479 115.117V115.767C174.479 117.267 173.599 118.817 172.189 119.457L172.759 120.267C174.319 119.547 175.319 117.707 175.319 115.767V115.117H174.479ZM174.699 115.117V115.767C174.699 117.647 175.709 119.427 177.279 120.107L177.849 119.307C176.419 118.687 175.519 117.197 175.519 115.767V115.117H174.699ZM172.459 114.397V115.237H177.509V114.397H172.459ZM174.479 113.047V114.847H175.529V113.047H174.479ZM187.358 112.857V118.187H188.408V112.857H187.358ZM187.978 115.127V115.997H189.698V115.127H187.978ZM182.578 118.567V121.887H188.408V118.567H187.368V119.407H183.608V118.567H182.578ZM183.608 120.207H187.368V121.057H183.608V120.207ZM181.288 113.727V114.567H186.668V113.727H181.288ZM183.978 114.907C182.658 114.907 181.758 115.547 181.758 116.517C181.758 117.487 182.658 118.127 183.978 118.127C185.288 118.127 186.188 117.487 186.188 116.517C186.188 115.547 185.288 114.907 183.978 114.907ZM183.978 115.687C184.698 115.687 185.188 116.007 185.188 116.517C185.188 117.037 184.698 117.357 183.978 117.357C183.258 117.357 182.768 117.037 182.768 116.517C182.768 116.007 183.258 115.687 183.978 115.687ZM183.458 112.777V114.187H184.498V112.777H183.458ZM196.977 112.857V121.997H198.017V112.857H196.977ZM191.007 113.737V119.407H192.047V113.737H191.007ZM191.007 118.787V119.687H191.787C193.207 119.687 194.677 119.587 196.257 119.257L196.137 118.377C194.607 118.687 193.147 118.787 191.787 118.787H191.007ZM205.706 112.847V122.007H206.756V112.847H205.706ZM206.516 116.357V117.227H208.176V116.357H206.516ZM200.046 118.897V119.767H200.786C202.446 119.767 203.666 119.717 205.066 119.467L204.956 118.587C203.606 118.837 202.406 118.897 200.786 118.897H200.046ZM200.046 113.717V119.297H201.086V114.567H204.296V113.717H200.046ZM209.906 121.307C210.336 121.307 210.676 120.967 210.676 120.497C210.676 120.017 210.336 119.687 209.906 119.687C209.466 119.687 209.136 120.017 209.136 120.497C209.136 120.967 209.466 121.307 209.906 121.307Z" fill="black"/>
<path d="M121.677 178.461V187.601H122.717V178.461H121.677ZM122.477 182.131V183.001H124.137V182.131H122.477ZM115.587 179.871V180.711H120.947V179.871H115.587ZM118.297 181.371C116.987 181.371 116.027 182.251 116.027 183.501C116.027 184.761 116.987 185.641 118.297 185.641C119.597 185.641 120.557 184.761 120.557 183.501C120.557 182.251 119.597 181.371 118.297 181.371ZM118.297 182.231C119.027 182.231 119.557 182.731 119.557 183.501C119.557 184.271 119.027 184.781 118.297 184.781C117.557 184.781 117.027 184.271 117.027 183.501C117.027 182.731 117.557 182.231 118.297 182.231ZM117.757 178.591V180.221H118.807V178.591H117.757ZM130.916 178.461V185.071H131.966V178.461H130.916ZM131.656 181.071V181.941H133.256V181.071H131.656ZM125.216 182.661V183.511H125.946C127.916 183.511 128.976 183.461 130.176 183.201L130.066 182.361C128.896 182.611 127.876 182.661 125.946 182.661H125.216ZM125.216 179.221V183.111H126.256V180.071H129.276V179.221H125.216ZM126.186 186.571V187.421H132.336V186.571H126.186ZM126.186 184.391V186.981H127.236V184.391H126.186ZM136.852 188.481H138.972V187.851H137.722V179.451H138.972V178.811H136.852V188.481ZM142.082 182.821V183.661H150.342V182.821H142.082ZM146.202 184.301C144.232 184.301 143.052 184.891 143.052 185.951C143.052 187.011 144.232 187.601 146.202 187.601C148.162 187.601 149.352 187.011 149.352 185.951C149.352 184.891 148.162 184.301 146.202 184.301ZM146.202 185.101C147.542 185.101 148.292 185.401 148.292 185.951C148.292 186.511 147.542 186.801 146.202 186.801C144.862 186.801 144.112 186.511 144.112 185.951C144.112 185.401 144.862 185.101 146.202 185.101ZM146.212 178.671C144.222 178.671 142.962 179.341 142.962 180.441C142.962 181.541 144.222 182.201 146.212 182.201C148.202 182.201 149.472 181.541 149.472 180.441C149.472 179.341 148.202 178.671 146.212 178.671ZM146.212 179.491C147.572 179.491 148.392 179.831 148.392 180.441C148.392 181.051 147.572 181.381 146.212 181.381C144.852 181.381 144.042 181.051 144.042 180.441C144.042 179.831 144.852 179.491 146.212 179.491ZM151.291 185.621V186.481H159.571V185.621H151.291ZM154.891 183.411V185.841H155.931V183.411H154.891ZM152.211 179.181V183.571H158.601V179.181H152.211ZM157.581 180.021V182.731H153.241V180.021H157.581ZM161.451 179.291V180.141H167.231V179.291H161.451ZM160.481 185.591V186.441H168.741V185.591H160.481ZM166.801 179.291V180.131C166.801 181.201 166.801 182.511 166.401 184.321L167.441 184.431C167.841 182.511 167.831 181.241 167.831 180.131V179.291H166.801ZM167.011 181.491L161.181 181.701L161.331 182.591L167.011 182.281V181.491ZM163.571 183.301V185.901H164.621V183.301H163.571ZM176.17 178.471V185.091H177.22V178.471H176.17ZM171.25 186.571V187.421H177.48V186.571H171.25ZM171.25 184.421V186.891H172.3V184.421H171.25ZM172.29 179.081C170.91 179.081 169.86 180.021 169.86 181.361C169.86 182.681 170.91 183.641 172.29 183.641C173.67 183.641 174.71 182.681 174.71 181.361C174.71 180.021 173.67 179.081 172.29 179.081ZM172.29 179.981C173.09 179.981 173.69 180.521 173.69 181.361C173.69 182.181 173.09 182.721 172.29 182.721C171.49 182.721 170.88 182.181 170.88 181.361C170.88 180.521 171.49 179.981 172.29 179.981ZM184.969 178.461V183.801H186.019V178.461H184.969ZM185.729 180.601V181.471H187.309V180.601H185.729ZM179.209 178.981V183.281H183.509V178.981H182.479V180.271H180.249V178.981H179.209ZM180.249 181.091H182.479V182.451H180.249V181.091ZM180.209 184.261V187.241H181.249V185.091H186.079V184.261H180.209ZM180.209 186.641V187.481H186.259V186.641H180.209ZM194.578 178.461V187.601H195.628V178.461H194.578ZM191.898 179.431V179.611C191.898 182.051 190.788 183.861 188.158 185.131L188.708 185.971C191.848 184.441 192.928 182.141 192.928 179.431H191.898ZM188.608 179.431V180.271H192.368V179.431H188.608ZM199.474 188.481H201.584V178.811H199.474V179.451H200.724V187.851H199.474V188.481ZM203.088 182.641V183.421H211.368V182.641H203.088ZM204.048 184.031V184.761H209.328V185.391H204.068V187.021H205.108V186.081H210.358V184.031H204.048ZM204.068 186.771V187.501H210.638V186.771H204.068ZM204.128 178.681V179.401H209.298V180.011H204.138V181.571H205.178V180.691H210.328V178.681H204.128ZM204.138 181.341V182.071H210.498V181.341H204.138ZM221.083 178.451V187.611H222.123V178.451H221.083ZM219.333 181.801V182.661H221.223V181.801H219.333ZM214.953 184.621V185.471H215.663C217.323 185.471 218.463 185.431 219.783 185.211L219.683 184.371C218.393 184.591 217.293 184.621 215.663 184.621H214.953ZM214.953 179.261V184.901H215.993V180.121H219.183V179.261H214.953ZM215.743 181.821V182.651H218.823V181.821H215.743ZM230.213 178.461V187.601H231.273V178.461H230.213ZM226.143 180.721V181.371C226.143 182.871 225.263 184.421 223.853 185.061L224.423 185.871C225.983 185.151 226.983 183.311 226.983 181.371V180.721H226.143ZM226.363 180.721V181.371C226.363 183.251 227.373 185.031 228.943 185.711L229.513 184.911C228.083 184.291 227.183 182.801 227.183 181.371V180.721H226.363ZM224.123 180.001V180.841H229.173V180.001H224.123ZM226.143 178.651V180.451H227.193V178.651H226.143ZM238.982 178.461V187.601H240.022V178.461H238.982ZM239.782 182.131V183.001H241.442V182.131H239.782ZM232.892 179.871V180.711H238.252V179.871H232.892ZM235.602 181.371C234.292 181.371 233.332 182.251 233.332 183.501C233.332 184.761 234.292 185.641 235.602 185.641C236.902 185.641 237.862 184.761 237.862 183.501C237.862 182.251 236.902 181.371 235.602 181.371ZM235.602 182.231C236.332 182.231 236.862 182.731 236.862 183.501C236.862 184.271 236.332 184.781 235.602 184.781C234.862 184.781 234.332 184.271 234.332 183.501C234.332 182.731 234.862 182.231 235.602 182.231ZM235.062 178.591V180.221H236.112V178.591H235.062ZM246.531 179.991V180.841H248.971V179.991H246.531ZM246.531 181.951V182.801H249.001V181.951H246.531ZM242.531 179.231V183.591H246.771V179.231H242.531ZM245.741 180.061V182.761H243.561V180.061H245.741ZM248.661 178.471V185.131H249.711V178.471H248.661ZM243.761 186.571V187.421H249.921V186.571H243.761ZM243.761 184.521V186.991H244.811V184.521H243.761ZM253.576 180.521V179.481H255.656V186.771H254.506V180.521H253.576ZM259.552 183.971V185.471H260.602V183.971H259.552ZM263.552 178.461V187.601H264.602V178.461H263.552ZM257.262 185.961C258.912 185.961 261.082 185.941 263.092 185.591L263.022 184.821C261.072 185.081 258.822 185.091 257.132 185.101L257.262 185.961ZM257.312 179.531V180.361H262.842V179.531H257.312ZM260.072 180.811C258.752 180.811 257.842 181.491 257.842 182.511C257.842 183.541 258.752 184.211 260.072 184.211C261.402 184.211 262.312 183.541 262.312 182.511C262.312 181.491 261.402 180.811 260.072 180.811ZM260.072 181.611C260.802 181.611 261.312 181.961 261.312 182.511C261.312 183.071 260.802 183.411 260.072 183.411C259.352 183.411 258.842 183.071 258.842 182.511C258.842 181.961 259.352 181.611 260.072 181.611ZM259.552 178.481V180.001H260.602V178.481H259.552ZM268.518 182.821V183.661H276.778V182.821H268.518ZM272.638 184.301C270.668 184.301 269.488 184.891 269.488 185.951C269.488 187.011 270.668 187.601 272.638 187.601C274.598 187.601 275.788 187.011 275.788 185.951C275.788 184.891 274.598 184.301 272.638 184.301ZM272.638 185.101C273.978 185.101 274.728 185.401 274.728 185.951C274.728 186.511 273.978 186.801 272.638 186.801C271.298 186.801 270.548 186.511 270.548 185.951C270.548 185.401 271.298 185.101 272.638 185.101ZM272.648 178.671C270.658 178.671 269.398 179.341 269.398 180.441C269.398 181.541 270.658 182.201 272.648 182.201C274.638 182.201 275.908 181.541 275.908 180.441C275.908 179.341 274.638 178.671 272.648 178.671ZM272.648 179.491C274.008 179.491 274.828 179.831 274.828 180.441C274.828 181.051 274.008 181.381 272.648 181.381C271.288 181.381 270.478 181.051 270.478 180.441C270.478 179.831 271.288 179.491 272.648 179.491ZM277.727 185.621V186.481H286.007V185.621H277.727ZM281.327 183.411V185.841H282.367V183.411H281.327ZM278.647 179.181V183.571H285.037V179.181H278.647ZM284.017 180.021V182.731H279.677V180.021H284.017ZM295.202 178.451V187.591H296.252V178.451H295.202ZM295.972 182.071V182.931H297.622V182.071H295.972ZM292.832 179.421V179.601C292.832 182.041 291.622 183.871 289.152 185.131L289.742 185.931C292.732 184.431 293.862 182.081 293.862 179.421H292.832ZM289.612 179.421V180.271H293.372V179.421H289.612ZM299.451 180.881V181.721H305.701V180.881H299.451ZM299.451 178.631V181.261H300.491V178.631H299.451ZM298.371 182.661V183.501H306.631V182.661H298.371ZM302.481 184.221C300.521 184.221 299.331 184.821 299.331 185.901C299.331 186.961 300.521 187.571 302.481 187.571C304.441 187.571 305.631 186.961 305.631 185.901C305.631 184.821 304.441 184.221 302.481 184.221ZM302.481 185.031C303.821 185.031 304.571 185.321 304.571 185.901C304.571 186.451 303.821 186.761 302.481 186.761C301.141 186.761 300.391 186.451 300.391 185.901C300.391 185.321 301.141 185.031 302.481 185.031ZM313.651 178.471V185.311H314.701V178.471H313.651ZM314.391 181.371V182.241H315.991V181.371H314.391ZM307.581 179.511V180.341H312.961V179.511H307.581ZM310.271 180.761C308.961 180.761 308.051 181.461 308.051 182.491C308.051 183.531 308.961 184.221 310.271 184.221C311.571 184.221 312.481 183.531 312.481 182.491C312.481 181.461 311.571 180.761 310.271 180.761ZM310.271 181.571C310.991 181.571 311.481 181.921 311.481 182.491C311.481 183.071 310.991 183.411 310.271 183.411C309.551 183.411 309.061 183.071 309.061 182.491C309.061 181.921 309.551 181.571 310.271 181.571ZM309.751 178.461V179.921H310.791V178.461H309.751ZM308.921 186.571V187.421H315.071V186.571H308.921ZM308.921 184.781V186.931H309.971V184.781H308.921ZM115.547 199.281C115.547 198.601 115.704 197.991 116.017 197.451C116.337 196.911 116.767 196.491 117.307 196.191C117.854 195.884 118.45 195.731 119.097 195.731C119.837 195.731 120.494 195.914 121.067 196.281C121.647 196.641 122.067 197.154 122.327 197.821H120.957C120.777 197.454 120.527 197.181 120.207 197.001C119.887 196.821 119.517 196.731 119.097 196.731C118.637 196.731 118.227 196.834 117.867 197.041C117.507 197.247 117.224 197.544 117.017 197.931C116.817 198.317 116.717 198.767 116.717 199.281C116.717 199.794 116.817 200.244 117.017 200.631C117.224 201.017 117.507 201.317 117.867 201.531C118.227 201.737 118.637 201.841 119.097 201.841C119.517 201.841 119.887 201.751 120.207 201.571C120.527 201.391 120.777 201.117 120.957 200.751H122.327C122.067 201.417 121.647 201.931 121.067 202.291C120.494 202.651 119.837 202.831 119.097 202.831C118.444 202.831 117.847 202.681 117.307 202.381C116.767 202.074 116.337 201.651 116.017 201.111C115.704 200.571 115.547 199.961 115.547 199.281ZM128.811 195.821L126.511 200.251V202.771H125.371V200.251L123.061 195.821H124.331L125.941 199.231L127.551 195.821H128.811ZM129.336 199.281C129.336 198.601 129.493 197.991 129.806 197.451C130.126 196.911 130.556 196.491 131.096 196.191C131.643 195.884 132.239 195.731 132.886 195.731C133.626 195.731 134.283 195.914 134.856 196.281C135.436 196.641 135.856 197.154 136.116 197.821H134.746C134.566 197.454 134.316 197.181 133.996 197.001C133.676 196.821 133.306 196.731 132.886 196.731C132.426 196.731 132.016 196.834 131.656 197.041C131.296 197.247 131.013 197.544 130.806 197.931C130.606 198.317 130.506 198.767 130.506 199.281C130.506 199.794 130.606 200.244 130.806 200.631C131.013 201.017 131.296 201.317 131.656 201.531C132.016 201.737 132.426 201.841 132.886 201.841C133.306 201.841 133.676 201.751 133.996 201.571C134.316 201.391 134.566 201.117 134.746 200.751H136.116C135.856 201.417 135.436 201.931 134.856 202.291C134.283 202.651 133.626 202.831 132.886 202.831C132.233 202.831 131.636 202.681 131.096 202.381C130.556 202.074 130.126 201.651 129.806 201.111C129.493 200.571 129.336 199.961 129.336 199.281ZM140.621 202.841C139.974 202.841 139.377 202.691 138.831 202.391C138.291 202.084 137.861 201.661 137.541 201.121C137.227 200.574 137.071 199.961 137.071 199.281C137.071 198.601 137.227 197.991 137.541 197.451C137.861 196.911 138.291 196.491 138.831 196.191C139.377 195.884 139.974 195.731 140.621 195.731C141.274 195.731 141.871 195.884 142.411 196.191C142.957 196.491 143.387 196.911 143.701 197.451C144.014 197.991 144.171 198.601 144.171 199.281C144.171 199.961 144.014 200.574 143.701 201.121C143.387 201.661 142.957 202.084 142.411 202.391C141.871 202.691 141.274 202.841 140.621 202.841ZM140.621 201.851C141.081 201.851 141.491 201.747 141.851 201.541C142.211 201.327 142.491 201.027 142.691 200.641C142.897 200.247 143.001 199.794 143.001 199.281C143.001 198.767 142.897 198.317 142.691 197.931C142.491 197.544 142.211 197.247 141.851 197.041C141.491 196.834 141.081 196.731 140.621 196.731C140.161 196.731 139.751 196.834 139.391 197.041C139.031 197.247 138.747 197.544 138.541 197.931C138.341 198.317 138.241 198.767 138.241 199.281C138.241 199.794 138.341 200.247 138.541 200.641C138.747 201.027 139.031 201.327 139.391 201.541C139.751 201.747 140.161 201.851 140.621 201.851ZM151.002 202.771H149.862L146.432 197.581V202.771H145.292V195.811H146.432L149.862 200.991V195.811H151.002V202.771ZM152.599 195.421V196.261H156.649V195.421H152.599ZM153.919 198.031V201.131H154.949V198.031H153.919ZM156.219 195.421V196.021C156.219 196.821 156.219 197.941 155.969 199.511L156.999 199.601C157.259 197.981 157.259 196.831 157.259 196.021V195.421H156.219ZM158.239 194.461V203.601H159.279V194.461H158.239ZM158.989 198.211V199.091H160.639V198.211H158.989ZM152.229 201.671C153.829 201.671 155.929 201.631 157.799 201.321L157.749 200.551C155.919 200.781 153.749 200.811 152.119 200.811L152.229 201.671ZM167.235 194.761V195.231C167.235 196.431 165.875 197.571 164.025 197.831L164.435 198.681C166.545 198.341 168.155 196.981 168.155 195.231V194.761H167.235ZM167.425 194.761V195.231C167.425 196.971 169.035 198.341 171.145 198.681L171.555 197.831C169.705 197.571 168.335 196.411 168.335 195.231V194.761H167.425ZM167.235 200.181V203.601H168.275V200.181H167.235ZM163.655 199.521V200.381H171.915V199.521H163.655ZM176.434 194.761V195.231C176.434 196.431 175.074 197.571 173.224 197.831L173.634 198.681C175.744 198.341 177.354 196.981 177.354 195.231V194.761H176.434ZM176.624 194.761V195.231C176.624 196.971 178.234 198.341 180.344 198.681L180.754 197.831C178.904 197.571 177.534 196.411 177.534 195.231V194.761H176.624ZM176.434 200.181V203.601H177.474V200.181H176.434ZM172.854 199.521V200.381H181.114V199.521H172.854ZM184.263 199.801V202.011H185.293V199.801H184.263ZM187.173 199.791V202.001H188.193V199.791H187.173ZM182.053 201.671V202.531H190.333V201.671H182.053ZM183.023 195.101V195.941H188.303V197.151H183.043V199.691H184.083V197.981H189.343V195.101H183.023ZM183.043 199.241V200.091H189.553V199.241H183.043ZM197.618 202.771L194.928 199.661V202.771H193.788V195.821H194.928V198.991L197.628 195.821H199.058L196.038 199.301L199.108 202.771H197.618ZM201.257 195.371V202.771H200.117V195.371H201.257ZM202.373 199.991C202.373 199.437 202.487 198.947 202.713 198.521C202.947 198.094 203.26 197.764 203.653 197.531C204.053 197.291 204.493 197.171 204.973 197.171C205.407 197.171 205.783 197.257 206.103 197.431C206.43 197.597 206.69 197.807 206.883 198.061V197.261H208.033V202.771H206.883V201.951C206.69 202.211 206.427 202.427 206.093 202.601C205.76 202.774 205.38 202.861 204.953 202.861C204.48 202.861 204.047 202.741 203.653 202.501C203.26 202.254 202.947 201.914 202.713 201.481C202.487 201.041 202.373 200.544 202.373 199.991ZM206.883 200.011C206.883 199.631 206.803 199.301 206.643 199.021C206.49 198.741 206.287 198.527 206.033 198.381C205.78 198.234 205.507 198.161 205.213 198.161C204.92 198.161 204.647 198.234 204.393 198.381C204.14 198.521 203.933 198.731 203.773 199.011C203.62 199.284 203.543 199.611 203.543 199.991C203.543 200.371 203.62 200.704 203.773 200.991C203.933 201.277 204.14 201.497 204.393 201.651C204.653 201.797 204.927 201.871 205.213 201.871C205.507 201.871 205.78 201.797 206.033 201.651C206.287 201.504 206.49 201.291 206.643 201.011C206.803 200.724 206.883 200.391 206.883 200.011ZM214.491 197.261L211.111 205.361H209.931L211.051 202.681L208.881 197.261H210.151L211.701 201.461L213.311 197.261H214.491ZM215.051 198.641V199.421H223.331V198.641H215.051ZM216.011 200.031V200.761H221.291V201.391H216.031V203.021H217.071V202.081H222.321V200.031H216.011ZM216.031 202.771V203.501H222.601V202.771H216.031ZM216.091 194.681V195.401H221.261V196.011H216.101V197.571H217.141V196.691H222.291V194.681H216.091ZM216.101 197.341V198.071H222.461V197.341H216.101ZM232.586 194.461V199.801H233.636V194.461H232.586ZM233.346 196.601V197.471H234.926V196.601H233.346ZM226.826 194.981V199.281H231.126V194.981H230.096V196.271H227.866V194.981H226.826ZM227.866 197.091H230.096V198.451H227.866V197.091ZM227.826 200.261V203.241H228.866V201.091H233.696V200.261H227.826ZM227.826 202.641V203.481H233.876V202.641H227.826ZM239.825 194.601C237.775 194.601 236.575 195.161 236.575 196.181C236.575 197.191 237.775 197.751 239.825 197.751C241.875 197.751 243.085 197.191 243.085 196.181C243.085 195.161 241.875 194.601 239.825 194.601ZM239.825 195.381C241.245 195.381 241.995 195.661 241.995 196.181C241.995 196.701 241.245 196.971 239.825 196.971C238.415 196.971 237.655 196.701 237.655 196.181C237.655 195.661 238.415 195.381 239.825 195.381ZM235.695 198.281V199.111H243.955V198.281H235.695ZM236.675 199.781V200.561H241.895V201.221H236.685V202.941H237.725V201.961H242.925V199.781H236.675ZM236.685 202.711V203.521H243.185V202.711H236.685ZM250.731 194.761V195.231C250.731 196.431 249.371 197.571 247.521 197.831L247.931 198.681C250.041 198.341 251.651 196.981 251.651 195.231V194.761H250.731ZM250.921 194.761V195.231C250.921 196.971 252.531 198.341 254.641 198.681L255.051 197.831C253.201 197.571 251.831 196.411 251.831 195.231V194.761H250.921ZM250.731 200.181V203.601H251.771V200.181H250.731ZM247.151 199.521V200.381H255.411V199.521H247.151ZM260.766 200.051V200.461C260.766 201.341 260.166 202.291 258.996 202.701L259.506 203.471C260.876 202.971 261.566 201.741 261.566 200.461V200.051H260.766ZM261.016 200.051V200.461C261.016 201.731 261.576 203.031 262.956 203.561L263.386 202.771C262.286 202.321 261.776 201.361 261.776 200.461V200.051H261.016ZM264.126 200.051V200.461C264.126 201.261 263.616 202.281 262.526 202.771L262.956 203.561C264.306 203.001 264.886 201.621 264.886 200.461V200.051H264.126ZM264.356 200.051V200.461C264.356 201.801 265.026 202.991 266.416 203.471L266.926 202.701C265.746 202.321 265.156 201.401 265.156 200.461V200.051H264.356ZM265.076 194.471V199.661H266.126V194.471H265.076ZM261.196 194.971C259.796 194.971 258.766 195.851 258.766 197.131C258.766 198.391 259.796 199.281 261.196 199.281C262.596 199.281 263.616 198.391 263.616 197.131C263.616 195.851 262.596 194.971 261.196 194.971ZM261.196 195.841C262.006 195.841 262.596 196.351 262.596 197.131C262.596 197.911 262.006 198.411 261.196 198.411C260.386 198.411 259.786 197.911 259.786 197.131C259.786 196.351 260.386 195.841 261.196 195.841ZM268.795 199.941V203.491H274.985V199.941H273.945V200.871H269.835V199.941H268.795ZM269.835 201.661H273.945V202.661H269.835V201.661ZM267.785 198.551V199.381H276.045V198.551H267.785ZM271.385 194.561V194.911C271.385 195.961 270.055 196.961 268.225 197.191L268.605 198.011C270.695 197.721 272.285 196.501 272.285 194.911V194.561H271.385ZM271.555 194.561V194.911C271.555 196.481 273.145 197.721 275.225 198.011L275.605 197.191C273.795 196.961 272.455 195.951 272.455 194.911V194.561H271.555ZM283.494 194.461V203.601H284.534V194.461H283.494ZM277.524 195.341V201.011H278.564V195.341H277.524ZM277.524 200.391V201.291H278.304C279.724 201.291 281.194 201.191 282.774 200.861L282.654 199.981C281.124 200.291 279.664 200.391 278.304 200.391H277.524ZM292.224 194.451V203.611H293.274V194.451H292.224ZM293.034 197.961V198.831H294.694V197.961H293.034ZM286.564 200.501V201.371H287.304C288.964 201.371 290.184 201.321 291.584 201.071L291.474 200.191C290.124 200.441 288.924 200.501 287.304 200.501H286.564ZM286.564 195.321V200.901H287.604V196.171H290.814V195.321H286.564ZM296.423 202.911C296.853 202.911 297.193 202.571 297.193 202.101C297.193 201.621 296.853 201.291 296.423 201.291C295.983 201.291 295.653 201.621 295.653 202.101C295.653 202.571 295.983 202.911 296.423 202.911ZM299.241 200.431H300.011L300.171 196.431L300.201 195.231H299.041L299.071 196.431L299.241 200.431ZM299.621 202.911C300.061 202.911 300.391 202.571 300.391 202.101C300.391 201.621 300.061 201.291 299.621 201.291C299.191 201.291 298.851 201.621 298.851 202.101C298.851 202.571 299.191 202.911 299.621 202.911Z" fill="black"/>
<rect x="52.1163" y="10.7424" width="35" height="35" rx="6.5" fill="white" stroke="#EEEEEE"/>
<path d="M79.8518 31.5123L75.2735 22.4449C75.1277 22.1552 74.9527 21.8655 74.7194 21.6338C73.6405 20.5619 71.8617 20.5619 70.7536 21.6338C70.5203 21.8655 70.3161 22.1552 70.1995 22.4449L69.6163 23.6037L69.0331 22.4449C68.8873 22.1552 68.7123 21.8655 68.479 21.6338C67.4001 20.5619 65.6212 20.5619 64.5131 21.6338C64.2798 21.8655 64.0757 22.1552 63.9591 22.4449L59.3808 31.5123C59.1767 31.9179 59.0309 32.3524 59.0309 32.8449C59.0309 33.3084 59.1475 33.7719 59.3517 34.1485C59.8182 35.0176 60.7514 35.626 61.8303 35.626H68.3624L66.8752 32.729C66.4961 31.9758 66.7877 31.0488 67.5459 30.6722C68.304 30.2956 69.2372 30.5853 69.6163 31.3385L71.8033 35.626H77.3731C78.9186 35.626 80.1725 34.3803 80.1725 32.8449C80.1725 32.3814 80.0559 31.9179 79.8518 31.5123Z" fill="#0001AE"/>
<path d="M79.8517 31.5123L75.2734 22.4449C75.1276 22.1552 74.9527 21.8655 74.7194 21.6338C73.6404 20.5619 71.8616 20.5619 70.7535 21.6338C70.5202 21.8655 70.3161 22.1552 70.1994 22.4449L69.6162 23.6037L74.9235 34.1485C75.3901 35.0466 76.3232 35.6549 77.4022 35.6549C78.9477 35.6549 80.2016 34.4093 80.2016 32.8739C80.1724 32.3814 80.0558 31.9179 79.8517 31.5123Z" fill="#AFC4F9"/>
<path d="M58.0121 128.223C57.6441 128.223 57.3134 128.159 57.0201 128.031C56.7321 127.898 56.5054 127.717 56.3401 127.487C56.1747 127.253 56.0894 126.983 56.0841 126.679H56.8601C56.8867 126.941 56.9934 127.162 57.1801 127.343C57.3721 127.519 57.6494 127.607 58.0121 127.607C58.3587 127.607 58.6307 127.522 58.8281 127.351C59.0307 127.175 59.1321 126.951 59.1321 126.679C59.1321 126.466 59.0734 126.293 58.9561 126.159C58.8387 126.026 58.6921 125.925 58.5161 125.855C58.3401 125.786 58.1027 125.711 57.8041 125.631C57.4361 125.535 57.1401 125.439 56.9161 125.343C56.6974 125.247 56.5081 125.098 56.3481 124.895C56.1934 124.687 56.1161 124.41 56.1161 124.063C56.1161 123.759 56.1934 123.49 56.3481 123.255C56.5027 123.021 56.7187 122.839 56.9961 122.711C57.2787 122.583 57.6014 122.519 57.9641 122.519C58.4867 122.519 58.9134 122.65 59.2441 122.911C59.5801 123.173 59.7694 123.519 59.8121 123.951H59.0121C58.9854 123.738 58.8734 123.551 58.6761 123.391C58.4787 123.226 58.2174 123.143 57.8921 123.143C57.5881 123.143 57.3401 123.223 57.1481 123.383C56.9561 123.538 56.8601 123.757 56.8601 124.039C56.8601 124.242 56.9161 124.407 57.0281 124.535C57.1454 124.663 57.2867 124.762 57.4521 124.831C57.6227 124.895 57.8601 124.97 58.1641 125.055C58.5321 125.157 58.8281 125.258 59.0521 125.359C59.2761 125.455 59.4681 125.607 59.6281 125.815C59.7881 126.018 59.8681 126.295 59.8681 126.647C59.8681 126.919 59.7961 127.175 59.6521 127.415C59.5081 127.655 59.2947 127.85 59.0121 127.999C58.7294 128.149 58.3961 128.223 58.0121 128.223ZM64.9394 125.807C64.9394 125.946 64.9314 126.093 64.9154 126.247H61.4114C61.438 126.679 61.5847 127.018 61.8514 127.263C62.1234 127.503 62.4514 127.623 62.8354 127.623C63.15 127.623 63.4114 127.551 63.6194 127.407C63.8327 127.258 63.982 127.061 64.0674 126.815H64.8514C64.734 127.237 64.4994 127.581 64.1474 127.847C63.7954 128.109 63.358 128.239 62.8354 128.239C62.4194 128.239 62.046 128.146 61.7154 127.959C61.39 127.773 61.134 127.509 60.9474 127.167C60.7607 126.821 60.6674 126.421 60.6674 125.967C60.6674 125.514 60.758 125.117 60.9394 124.775C61.1207 124.434 61.374 124.173 61.6994 123.991C62.03 123.805 62.4087 123.711 62.8354 123.711C63.2514 123.711 63.6194 123.802 63.9394 123.983C64.2594 124.165 64.5047 124.415 64.6754 124.735C64.8514 125.05 64.9394 125.407 64.9394 125.807ZM64.1874 125.655C64.1874 125.378 64.126 125.141 64.0034 124.943C63.8807 124.741 63.7127 124.589 63.4994 124.487C63.2914 124.381 63.0594 124.327 62.8034 124.327C62.4354 124.327 62.1207 124.445 61.8594 124.679C61.6034 124.914 61.4567 125.239 61.4194 125.655H64.1874ZM66.7883 124.383V126.967C66.7883 127.181 66.8336 127.333 66.9243 127.423C67.015 127.509 67.1723 127.551 67.3963 127.551H67.9323V128.167H67.2763C66.871 128.167 66.567 128.074 66.3643 127.887C66.1616 127.701 66.0603 127.394 66.0603 126.967V124.383H65.4923V123.783H66.0603V122.679H66.7883V123.783H67.9323V124.383H66.7883ZM69.7024 124.383V126.967C69.7024 127.181 69.7477 127.333 69.8384 127.423C69.929 127.509 70.0864 127.551 70.3104 127.551H70.8464V128.167H70.1904C69.785 128.167 69.481 128.074 69.2784 127.887C69.0757 127.701 68.9744 127.394 68.9744 126.967V124.383H68.4064V123.783H68.9744V122.679H69.7024V123.783H70.8464V124.383H69.7024ZM72.1044 123.071C71.9658 123.071 71.8484 123.023 71.7524 122.927C71.6564 122.831 71.6084 122.714 71.6084 122.575C71.6084 122.437 71.6564 122.319 71.7524 122.223C71.8484 122.127 71.9658 122.079 72.1044 122.079C72.2378 122.079 72.3498 122.127 72.4404 122.223C72.5364 122.319 72.5844 122.437 72.5844 122.575C72.5844 122.714 72.5364 122.831 72.4404 122.927C72.3498 123.023 72.2378 123.071 72.1044 123.071ZM72.4564 123.783V128.167H71.7284V123.783H72.4564ZM75.8332 123.703C76.3665 123.703 76.7985 123.866 77.1292 124.191C77.4598 124.511 77.6252 124.975 77.6252 125.583V128.167H76.9052V125.687C76.9052 125.25 76.7958 124.917 76.5772 124.687C76.3585 124.453 76.0598 124.335 75.6812 124.335C75.2972 124.335 74.9905 124.455 74.7612 124.695C74.5372 124.935 74.4252 125.285 74.4252 125.743V128.167H73.6972V123.783H74.4252V124.407C74.5692 124.183 74.7638 124.01 75.0092 123.887C75.2598 123.765 75.5345 123.703 75.8332 123.703ZM80.6224 123.711C81.001 123.711 81.3317 123.794 81.6144 123.959C81.9024 124.125 82.1157 124.333 82.2544 124.583V123.783H82.9904V128.263C82.9904 128.663 82.905 129.018 82.7344 129.327C82.5637 129.642 82.3184 129.887 81.9984 130.063C81.6837 130.239 81.3157 130.327 80.8944 130.327C80.3184 130.327 79.8384 130.191 79.4544 129.919C79.0704 129.647 78.8437 129.277 78.7744 128.807H79.4944C79.5744 129.074 79.7397 129.287 79.9904 129.447C80.241 129.613 80.5424 129.695 80.8944 129.695C81.2944 129.695 81.6197 129.57 81.8704 129.319C82.1264 129.069 82.2544 128.717 82.2544 128.263V127.343C82.1104 127.599 81.897 127.813 81.6144 127.983C81.3317 128.154 81.001 128.239 80.6224 128.239C80.233 128.239 79.8784 128.143 79.5584 127.951C79.2437 127.759 78.9957 127.49 78.8144 127.143C78.633 126.797 78.5424 126.402 78.5424 125.959C78.5424 125.511 78.633 125.119 78.8144 124.783C78.9957 124.442 79.2437 124.178 79.5584 123.991C79.8784 123.805 80.233 123.711 80.6224 123.711ZM82.2544 125.967C82.2544 125.637 82.1877 125.349 82.0544 125.103C81.921 124.858 81.7397 124.671 81.5104 124.543C81.2864 124.41 81.0384 124.343 80.7664 124.343C80.4944 124.343 80.2464 124.407 80.0224 124.535C79.7984 124.663 79.6197 124.85 79.4864 125.095C79.353 125.341 79.2864 125.629 79.2864 125.959C79.2864 126.295 79.353 126.589 79.4864 126.839C79.6197 127.085 79.7984 127.274 80.0224 127.407C80.2464 127.535 80.4944 127.599 80.7664 127.599C81.0384 127.599 81.2864 127.535 81.5104 127.407C81.7397 127.274 81.921 127.085 82.0544 126.839C82.1877 126.589 82.2544 126.298 82.2544 125.967Z" fill="#1D1D1D"/>
<path fill-rule="evenodd" clip-rule="evenodd" d="M67.3546 89.5823H70.9645V92.3968C75.5209 93.0594 79.1052 96.7209 79.6504 101.314H82.6966V104.924H79.4421C78.4781 108.959 75.1269 112.067 70.9645 112.672V115.754H67.3546V112.559C63.4894 111.745 60.4271 108.752 59.5126 104.924H56.525L56.525 101.314H59.3044C59.8239 96.9367 63.1037 93.4055 67.3546 92.5099V89.5823ZM69.4773 109.805C73.4928 109.805 76.7479 106.55 76.7479 102.535C76.7479 98.5191 73.4928 95.2639 69.4773 95.2639C65.4619 95.2639 62.2067 98.5191 62.2067 102.535C62.2067 106.55 65.4619 109.805 69.4773 109.805Z" fill="#0001AE"/>
<rect x="58.7679" y="95.0159" width="3.60987" height="4.51234" transform="rotate(-45 58.7679 95.0159)" fill="#0001AE"/>
<rect x="61.9586" y="113.522" width="3.60987" height="4.51234" transform="rotate(-135 61.9586 113.522)" fill="#0001AE"/>
<rect x="77.274" y="98.2066" width="3.60987" height="4.51234" transform="rotate(-135 77.274 98.2066)" fill="#0001AE"/>
<rect x="74.0833" y="110.331" width="3.60987" height="4.51234" transform="rotate(-45 74.0833 110.331)" fill="#0001AE"/>
<circle cx="69.6102" cy="102.667" r="3.5" fill="#FF003A"/>
<rect x="15.0561" y="51.4755" width="1.01077" height="35.1069" fill="#000079"/>
<rect x="15.0561" y="131.916" width="1.01077" height="35.1069" fill="#000079"/>
</svg>
