<svg width="57" height="58" viewBox="0 0 57 58" fill="none" xmlns="http://www.w3.org/2000/svg">
<path d="M46.2713 38.4964C46.294 38.457 46.3149 38.421 46.3376 38.3816C51.7277 29.0457 48.1376 16.8818 38.3191 11.213C28.5005 5.54428 16.1712 8.51717 10.7811 17.8531C10.7603 17.8891 10.7395 17.9252 10.7186 17.9613L9.77202 19.6009C4.38193 28.9368 7.97198 41.1007 17.7905 46.7695C27.6091 52.4382 39.9384 49.4653 45.3285 40.1294L46.2713 38.4964Z" fill="#B96400"/>
<path fill-rule="evenodd" clip-rule="evenodd" d="M20.8614 41.4504C18.968 40.3573 17.3324 38.9452 16.0094 37.2544C14.7284 35.6185 13.7829 33.7915 13.2011 31.8204C12.6194 29.8493 12.4325 27.8395 12.6418 25.8441C12.8592 23.7791 13.4974 21.8215 14.5368 20.0213C15.5762 18.221 16.9543 16.6862 18.6321 15.4687C20.2554 14.2898 22.0894 13.4467 24.0873 12.965C26.0852 12.4832 28.1401 12.3886 30.1975 12.68C32.3266 12.9824 34.3639 13.6908 36.2573 14.7839C38.1507 15.8771 39.7863 17.2892 41.1092 18.98C42.3903 20.6159 43.3358 22.4429 43.9175 24.414C44.4993 26.3851 44.6862 28.3949 44.4769 30.3902C44.2595 32.4552 43.6213 34.4128 42.5819 36.2131C41.5425 38.0134 40.1644 39.5482 38.4866 40.7657C36.8633 41.9446 35.0293 42.7877 33.0314 43.2694C31.0334 43.7511 28.9785 43.8458 26.9212 43.5543C24.7955 43.254 22.7582 42.5456 20.8614 41.4504Z" fill="url(#paint0_linear_1523_1437)"/>
<path d="M35.8769 15.4434C37.6771 16.4828 39.2291 17.8248 40.4901 19.4317C41.7074 20.987 42.6088 22.723 43.1591 24.5972C43.7113 26.4682 43.8897 28.3813 43.6913 30.278C43.4833 32.2392 42.8771 34.1015 41.8888 35.8133C40.9006 37.525 39.5908 38.9812 37.9964 40.1419C36.453 41.2621 34.7105 42.0661 32.8106 42.5214C30.9142 42.9787 28.9582 43.0692 27.0026 42.7928C24.9805 42.5041 23.0423 41.8311 21.2421 40.7917C19.4418 39.7523 17.8899 38.4103 16.6288 36.8034C15.4116 35.2481 14.5101 33.5121 13.9598 31.6379C13.4076 29.7669 13.2293 27.8538 13.4276 25.9571C13.6356 23.996 14.2419 22.1336 15.2301 20.4219C16.2184 18.7101 17.5282 17.2539 19.1225 16.0932C20.6659 14.9731 22.4085 14.169 24.3084 13.7137C26.2048 13.2565 28.1608 13.1659 30.1164 13.4424C32.1385 13.731 34.0767 14.4041 35.8769 15.4434ZM36.638 14.1252C34.6515 12.9783 32.5097 12.2358 30.2754 11.9165C28.1164 11.61 25.9572 11.71 23.8631 12.215C21.7691 12.7199 19.8417 13.6052 18.1384 14.843C16.3823 16.1245 14.9343 17.7326 13.8437 19.6214C12.7532 21.5102 12.0846 23.5683 11.8544 25.7352C11.6341 27.8291 11.8311 29.941 12.4408 32.007C13.0506 34.0729 14.0435 35.9929 15.3884 37.7094C16.7822 39.4847 18.4926 40.9663 20.4825 42.1152C22.469 43.2621 24.6108 44.0046 26.8451 44.3239C29.0041 44.6304 31.1633 44.5304 33.2574 44.0254C35.3514 43.5205 37.2789 42.6352 38.9821 41.3974C40.7436 40.1146 42.1897 38.5098 43.2821 36.6177C44.3726 34.7289 45.0413 32.6708 45.2715 30.5039C45.4918 28.41 45.2948 26.2981 44.6851 24.2321C44.0753 22.1662 43.0824 20.2462 41.7374 18.5297C40.3384 16.7557 38.6279 15.2741 36.638 14.1252Z" fill="url(#paint1_linear_1523_1437)"/>
<path d="M36.6379 14.125C38.6243 15.2718 40.3382 16.7554 41.732 18.5308C43.0769 20.2473 44.0698 22.1672 44.6796 24.2332C45.2893 26.2992 45.4863 28.411 45.266 30.505C45.0358 32.6719 44.3691 34.7266 43.2767 36.6187C42.1861 38.5076 40.7381 40.1157 38.9766 41.3985C37.2734 42.6362 35.346 43.5216 33.2519 44.0265C31.1578 44.5314 28.9986 44.6315 26.8396 44.325C24.6072 44.0024 22.4689 43.2619 20.479 42.113C18.4925 40.9661 16.7786 39.4825 15.3848 37.7072C14.0399 35.9907 13.047 34.0707 12.4372 32.0048C11.8275 29.9388 11.6305 27.8269 11.8508 25.733C12.0845 23.5681 12.7512 21.5133 13.8436 19.6212C14.9341 17.7324 16.3821 16.1243 18.1436 14.8415C19.8469 13.6037 21.7743 12.7184 23.8683 12.2135C25.9624 11.7085 28.1216 11.6085 30.2806 11.9149C32.5096 12.2356 34.6514 12.9781 36.6379 14.125ZM38.3191 11.213C28.5005 5.54428 16.1712 8.51717 10.7811 17.8531C5.39104 27.189 8.98109 39.3529 18.7996 45.0217C28.6182 50.6904 40.9475 47.7175 46.3376 38.3816C51.7277 29.0457 48.1376 16.8818 38.3191 11.213Z" fill="url(#paint2_linear_1523_1437)"/>
<path d="M35.8368 25.997C34.8433 25.4234 33.5667 25.7654 32.993 26.759C32.4201 27.7513 32.7615 29.0292 33.755 29.6028C34.7474 30.1757 36.0252 29.8344 36.5988 28.8408C37.1725 27.8472 36.8304 26.5706 35.8368 25.997Z" fill="#D57A00"/>
<path d="M37.3231 23.4227C35.4515 22.3421 33.177 22.5944 31.597 23.8846C30.2881 24.9548 28.3182 24.1663 28.1095 22.4885C28.0301 21.863 27.6717 21.2811 27.0835 20.9414C26.0862 20.3657 24.8147 20.7074 24.2396 21.7034C23.6646 22.6995 24.0056 23.9722 25.0016 24.5473C25.6047 24.8954 26.3098 24.9079 26.8995 24.6408C28.4074 23.9607 30.0556 25.4199 29.8044 27.0008C29.4838 29.0083 30.4023 31.096 32.2691 32.1737C34.6861 33.5692 37.7759 32.7413 39.1714 30.3243C40.5673 27.9092 39.7401 24.8182 37.3231 23.4227ZM33.1474 30.6552C31.5693 29.7441 31.0289 27.7274 31.9394 26.1505C32.8505 24.5724 34.8672 24.032 36.4453 24.9432C38.0223 25.8536 38.5626 27.8702 37.6515 29.4484C36.741 31.0253 34.7244 31.5657 33.1474 30.6552Z" fill="#D57A00"/>
<path d="M28.124 25.8244C27.8637 25.6741 27.5589 25.6717 27.3057 25.7925C26.3909 26.1715 25.3181 26.1351 24.3946 25.6019C22.8164 24.6907 22.276 22.6741 23.1865 21.0971C24.0976 19.519 26.1143 18.9786 27.6924 19.8898C28.6135 20.4216 29.1864 21.3467 29.3169 22.326C29.3191 22.342 29.3201 22.3573 29.3223 22.3733C29.3221 22.3765 29.3227 22.3785 29.3244 22.3811C29.3653 22.6307 29.5142 22.8607 29.75 22.9969C30.1676 23.238 30.7035 23.0954 30.9452 22.6766C31.0325 22.5256 31.0691 22.36 31.0622 22.1989C31.0646 22.1806 31.065 22.1628 31.063 22.1436C30.8795 20.6179 30.0049 19.1944 28.5717 18.3669C26.1547 16.9714 23.0636 17.7987 21.6675 20.2169C20.272 22.6338 21.1012 25.7244 23.5182 27.1198C24.9379 27.9395 26.5892 27.9923 27.9935 27.4063C28.1775 27.3372 28.3416 27.206 28.4473 27.0231C28.6884 26.6055 28.5441 26.0669 28.124 25.8244Z" fill="#D57A00"/>
<path d="M31.348 35.9192C31.7301 35.2573 31.5033 34.4107 30.8413 34.0285C30.1794 33.6463 29.3328 33.8732 28.9506 34.5351C28.9414 34.5511 28.9373 34.5667 28.9293 34.5834L28.9244 34.5806C27.8962 36.3614 25.62 36.9713 23.8392 35.9431C22.0584 34.915 21.4485 32.6388 22.4767 30.858L22.4717 30.8551C22.4803 30.8404 22.4937 30.8285 22.5029 30.8125C22.8851 30.1506 22.6582 29.304 21.9963 28.9218C21.3343 28.5396 20.4877 28.7665 20.1056 29.4284C20.0963 29.4444 20.0922 29.46 20.0842 29.4767L20.0793 29.4739C18.2868 32.5786 19.3504 36.5479 22.4551 38.3405C25.5599 40.133 29.5292 39.0694 31.3217 35.9647L31.3168 35.9618C31.3273 35.9466 31.3394 35.934 31.348 35.9192Z" fill="#D57A00"/>
<path d="M36.2306 24.5649C35.2371 23.9913 33.9605 24.3333 33.3868 25.3269C32.8139 26.3192 33.1553 27.5971 34.1488 28.1707C35.1412 28.7436 36.419 28.4023 36.9926 27.4087C37.5663 26.4152 37.2242 25.1385 36.2306 24.5649Z" fill="url(#paint3_linear_1523_1437)"/>
<path d="M37.717 21.9907C35.8453 20.9101 33.5709 21.1624 31.9908 22.4526C30.6819 23.5228 28.712 22.7342 28.5033 21.0564C28.424 20.4309 28.0656 19.8491 27.4773 19.5094C26.4801 18.9337 25.2086 19.2754 24.6335 20.2714C24.0585 21.2674 24.3995 22.5402 25.3955 23.1152C25.9985 23.4634 26.7036 23.4758 27.2934 23.2088C28.8012 22.5286 30.4494 23.9879 30.1982 25.5688C29.8776 27.5763 30.7962 29.6639 32.663 30.7417C35.0799 32.1372 38.1698 31.3092 39.5652 28.8923C40.9612 26.4772 40.134 23.3861 37.717 21.9907ZM33.5413 29.2232C31.9631 28.3121 31.4228 26.2954 32.3332 24.7185C33.2444 23.1403 35.261 22.6 36.8392 23.5111C38.4161 24.4216 38.9565 26.4382 38.0453 28.0164C37.1349 29.5933 35.1182 30.1337 33.5413 29.2232Z" fill="url(#paint4_linear_1523_1437)"/>
<path d="M28.5177 24.3922C28.2573 24.2419 27.9525 24.2395 27.6993 24.3602C26.7846 24.7393 25.7117 24.7028 24.7882 24.1696C23.21 23.2585 22.6697 21.2418 23.5801 19.6649C24.4913 18.0867 26.5079 17.5464 28.086 18.4575C29.0072 18.9893 29.58 19.9145 29.7105 20.8938C29.7128 20.9098 29.7137 20.9251 29.716 20.9411C29.7158 20.9443 29.7163 20.9462 29.718 20.9488C29.759 21.1985 29.9078 21.4285 30.1436 21.5646C30.5612 21.8057 31.0971 21.6632 31.3389 21.2444C31.4261 21.0933 31.4627 20.9278 31.4558 20.7666C31.4582 20.7483 31.4586 20.7306 31.4566 20.7114C31.2731 19.1857 30.3985 17.7621 28.9653 16.9346C26.5483 15.5392 23.4572 16.3664 22.0611 18.7846C20.6656 21.2016 21.4948 24.2921 23.9118 25.6876C25.3315 26.5073 26.9828 26.56 28.3871 25.974C28.5711 25.905 28.7353 25.7738 28.8409 25.5908C29.082 25.1732 28.9377 24.6347 28.5177 24.3922Z" fill="url(#paint5_linear_1523_1437)"/>
<path d="M31.7418 34.4871C32.1239 33.8252 31.8971 32.9786 31.2351 32.5964C30.5732 32.2142 29.7266 32.4411 29.3444 33.103C29.3352 33.119 29.3311 33.1346 29.3231 33.1513L29.3182 33.1485C28.29 34.9293 26.0138 35.5392 24.233 34.5111C22.4522 33.4829 21.8423 31.2067 22.8705 29.4259L22.8655 29.4231C22.874 29.4083 22.8875 29.3964 22.8967 29.3804C23.2789 28.7185 23.052 27.8719 22.3901 27.4897C21.7281 27.1075 20.8815 27.3344 20.4994 27.9963C20.4901 28.0123 20.486 28.028 20.478 28.0446L20.4731 28.0418C18.6806 31.1465 19.7442 35.1159 22.8489 36.9084C25.9537 38.7009 29.923 37.6373 31.7155 34.5326L31.7106 34.5298C31.721 34.5145 31.7332 34.5019 31.7418 34.4871Z" fill="url(#paint6_linear_1523_1437)"/>
<defs>
<linearGradient id="paint0_linear_1523_1437" x1="20.0316" y1="42.8891" x2="35.4287" y2="16.2206" gradientUnits="userSpaceOnUse">
<stop stop-color="#F0B100"/>
<stop offset="0.9876" stop-color="#EBA700"/>
</linearGradient>
<linearGradient id="paint1_linear_1523_1437" x1="36.441" y1="14.4678" x2="20.2827" y2="42.4549" gradientUnits="userSpaceOnUse">
<stop stop-color="#C96D00"/>
<stop offset="0.5383" stop-color="#F3AC00"/>
<stop offset="0.9876" stop-color="#FFFF00"/>
</linearGradient>
<linearGradient id="paint2_linear_1523_1437" x1="18.6018" y1="45.3659" x2="38.1218" y2="11.5561" gradientUnits="userSpaceOnUse">
<stop offset="8e-08" stop-color="#FFC100"/>
<stop offset="0.2951" stop-color="#FFD100"/>
<stop offset="0.6566" stop-color="#FFDF00"/>
<stop offset="0.9876" stop-color="#FFE300"/>
</linearGradient>
<linearGradient id="paint3_linear_1523_1437" x1="34.1483" y1="28.17" x2="36.2305" y2="24.5636" gradientUnits="userSpaceOnUse">
<stop stop-color="#FFC100"/>
<stop offset="0.9876" stop-color="#FFE300"/>
</linearGradient>
<linearGradient id="paint4_linear_1523_1437" x1="29.5706" y1="28.9554" x2="34.6243" y2="20.2021" gradientUnits="userSpaceOnUse">
<stop stop-color="#FFC100"/>
<stop offset="0.9876" stop-color="#FFE300"/>
</linearGradient>
<linearGradient id="paint5_linear_1523_1437" x1="23.5496" y1="25.4776" x2="28.604" y2="16.723" gradientUnits="userSpaceOnUse">
<stop stop-color="#FFC100"/>
<stop offset="0.9876" stop-color="#FFE300"/>
</linearGradient>
<linearGradient id="paint6_linear_1523_1437" x1="22.8471" y1="36.9066" x2="26.8115" y2="30.0401" gradientUnits="userSpaceOnUse">
<stop stop-color="#FFC100"/>
<stop offset="0.9876" stop-color="#FFE300"/>
</linearGradient>
</defs>
</svg>
