<svg width="87" height="87" viewBox="0 0 87 87" fill="none" xmlns="http://www.w3.org/2000/svg">
<path d="M76.7489 32.5404C76.7278 32.4666 76.7083 32.3989 76.6872 32.3251C71.6633 14.8054 52.6535 4.88589 34.2281 10.1695C15.8027 15.4531 4.93836 33.9392 9.96225 51.4589C9.98166 51.5266 10.0011 51.5943 10.0205 51.662L10.9028 54.7388C15.9267 72.2585 34.9365 82.178 53.3619 76.8944C71.7873 71.6108 82.6516 53.1247 77.6277 35.605L76.7489 32.5404Z" fill="#B96400"/>
<path fill-rule="evenodd" clip-rule="evenodd" d="M50.4996 66.9128C46.9465 67.9317 43.3082 68.2624 39.6982 67.8857C36.204 67.5224 32.8717 66.5267 29.7913 64.9193C26.7108 63.3119 24.047 61.1788 21.8662 58.5808C19.61 55.8912 17.9788 52.816 17.01 49.4376C16.0412 46.0592 15.7932 42.5807 16.2829 39.1104C16.7555 35.7516 17.8842 32.5309 19.6447 29.5353C21.4052 26.5398 23.7034 23.9294 26.474 21.7697C29.3424 19.5353 32.5966 17.8895 36.1496 16.8707C39.7027 15.8518 43.341 15.5211 46.951 15.8977C50.4452 16.261 53.7775 17.2568 56.8579 18.8642C59.9383 20.4716 62.6022 22.6047 64.783 25.2027C67.0391 27.8922 68.6704 30.9674 69.6392 34.3458C70.608 37.7242 70.856 41.2028 70.3663 44.6731C69.8936 48.0319 68.765 51.2526 67.0045 54.2481C65.244 57.2437 62.9458 59.8541 60.1751 62.0138C57.3133 64.2463 54.0591 65.8921 50.4996 66.9128Z" fill="url(#paint0_linear_1515_1114)"/>
<path d="M36.5048 18.1079C39.8831 17.1392 43.3379 16.8278 46.7732 17.1813C50.0943 17.5276 53.2643 18.47 56.19 20.0019C59.1139 21.5276 61.6501 23.5575 63.7239 26.0263C65.8647 28.5825 67.4177 31.507 68.3388 34.7192C69.26 37.9315 69.4928 41.2346 69.0319 44.5368C68.5816 47.7294 67.513 50.7929 65.8354 53.6382C64.1644 56.4816 61.9773 58.9668 59.3444 61.0205C56.6185 63.1408 53.5237 64.7075 50.1454 65.6763C46.7671 66.645 43.3123 66.9564 39.877 66.6029C36.5558 66.2566 33.3859 65.3142 30.4602 63.7823C27.5363 62.2565 25.0001 60.2267 22.9263 57.7578C20.7855 55.2017 19.2325 52.2772 18.3113 49.065C17.3902 45.8527 17.1574 42.5496 17.6183 39.2474C18.0686 36.0548 19.1372 32.9912 20.8148 30.146C22.4858 27.3026 24.6729 24.8174 27.3058 22.7637C30.0317 20.6434 33.1265 19.0767 36.5048 18.1079ZM35.7954 15.6341C32.0676 16.7031 28.6493 18.4359 25.6368 20.7782C22.7285 23.044 20.3144 25.7875 18.4691 28.9272C16.6239 32.067 15.437 35.4509 14.942 38.976C14.4381 42.6168 14.6932 46.2665 15.7097 49.811C16.7261 53.3556 18.4438 56.5858 20.8088 59.4106C23.0967 62.1377 25.8964 64.3784 29.1251 66.0632C32.3538 67.7479 35.855 68.7951 39.5221 69.1754C43.318 69.5654 47.1287 69.2252 50.863 68.1544C54.5908 67.0854 58.0092 65.3526 61.0216 63.0103C63.9299 60.7445 66.3441 58.001 68.1893 54.8612C70.0345 51.7215 71.2214 48.3376 71.7165 44.8125C72.225 41.1636 71.9717 37.5202 70.9535 33.9695C69.9371 30.4249 68.2193 27.1947 65.8544 24.3698C63.5665 21.6427 60.7667 19.4021 57.538 17.7173C54.3093 16.0325 50.8082 14.9853 47.1411 14.605C43.3404 14.2231 39.5297 14.5633 35.7954 15.6341Z" fill="url(#paint1_linear_1515_1114)"/>
<path d="M35.795 15.634C39.5228 14.565 43.34 14.223 47.136 14.6129C50.8031 14.9932 54.3042 16.0404 57.5329 17.7252C60.7616 19.41 63.5614 21.6506 65.8493 24.3777C68.2142 27.2026 69.9302 30.4267 70.9484 33.9774C71.9648 37.5219 72.2199 41.1716 71.7114 44.8204C71.2163 48.3455 70.0294 51.7294 68.1842 54.8691C66.339 58.0089 63.9248 60.7524 61.0165 63.0182C58.0023 65.3543 54.5904 67.0853 50.8561 68.1561C47.1283 69.2251 43.3112 69.5671 39.5152 69.1772C35.8481 68.7969 32.347 67.7497 29.1183 66.0649C25.8896 64.3801 23.0898 62.1395 20.8019 59.4124C18.4434 56.5857 16.7275 53.3616 15.7093 49.8109C14.6928 46.2664 14.4377 42.6167 14.9463 38.9678C15.4413 35.4427 16.6282 32.0589 18.4735 28.9191C20.3187 25.7794 22.7328 23.0359 25.6411 20.7701C28.6489 18.4358 32.0673 16.703 35.795 15.634ZM34.2281 10.1695C15.8027 15.4531 4.93836 33.9392 9.96225 51.4589C14.9861 68.9786 33.996 78.8981 52.4214 73.6145C70.8467 68.3309 81.7111 49.8447 76.6872 32.3251C71.6633 14.8054 52.6535 4.88589 34.2281 10.1695Z" fill="url(#paint2_linear_1515_1114)"/>
<path d="M49.2928 30.551C47.4283 31.0857 46.345 33.04 46.8797 34.9045C47.4137 36.7667 49.3687 37.8523 51.2332 37.3176C53.0954 36.7836 54.181 34.8286 53.6463 32.9641C53.1117 31.0996 51.1573 30.0163 49.2928 30.551Z" fill="#D57A00"/>
<path d="M47.9076 25.7201C44.3952 26.7273 42.0309 29.7898 41.7444 33.2267C41.5087 36.0753 38.2362 37.545 35.9506 35.8284C35.0967 35.1903 33.9681 34.9428 32.8641 35.2593C30.9927 35.796 29.915 37.7437 30.451 39.6129C30.987 41.482 32.9354 42.562 34.8045 42.026C35.9361 41.7015 36.7794 40.8586 37.1473 39.8277C38.0909 37.1951 41.8013 36.9043 43.429 39.0665C45.4939 41.8141 49.1117 43.1487 52.6148 42.1442C57.1505 40.8435 59.7724 36.1134 58.4718 31.5777C57.1741 27.0437 52.4433 24.4195 47.9076 25.7201ZM51.7996 39.2926C48.838 40.1418 45.7508 38.4306 44.9023 35.4714C44.053 32.5098 45.7642 29.4226 48.7258 28.5733C51.685 27.7248 54.7722 29.436 55.6215 32.3975C56.4701 35.3568 54.7589 38.444 51.7996 39.2926Z" fill="#D57A00"/>
<path d="M40.0249 39.7285C39.5363 39.8686 39.1754 40.2365 39.025 40.6862C38.4116 42.2439 37.1073 43.5059 35.3742 44.0029C32.4126 44.8521 29.3254 43.1409 28.4768 40.1816C27.6276 37.2201 29.3388 34.1329 32.3004 33.2836C34.0289 32.7879 35.8268 33.1778 37.1711 34.1691C37.1932 34.1852 37.213 34.202 37.2351 34.2181C37.2387 34.2221 37.2416 34.2237 37.2469 34.2247C37.5986 34.4681 38.0531 34.5572 38.4956 34.4303C39.2792 34.2056 39.7352 33.3864 39.5099 32.6005C39.4286 32.3171 39.2703 32.0781 39.0662 31.8972C39.0468 31.8728 39.0257 31.8514 39 31.8314C36.9289 30.2628 34.1705 29.6545 31.4809 30.4258C26.9452 31.7264 24.321 36.4572 25.6223 40.9952C26.9229 45.5309 31.6554 48.1521 36.191 46.8515C38.8553 46.0875 40.8588 44.1412 41.7954 41.745C41.9275 41.4402 41.9607 41.0865 41.8623 40.7431C41.6376 39.9595 40.8131 39.5025 40.0249 39.7285Z" fill="#D57A00"/>
<path d="M56.0883 47.6632C55.7321 46.421 54.4361 45.7026 53.1939 46.0589C51.9516 46.4151 51.2333 47.7111 51.5895 48.9533C51.5981 48.9833 51.6123 49.0066 51.6232 49.0359L51.6139 49.0386C52.5722 52.3804 50.6407 55.865 47.2989 56.8233C43.9571 57.7816 40.4725 55.8501 39.5142 52.5083L39.505 52.5109C39.497 52.4833 39.4983 52.453 39.4897 52.423C39.1335 51.1807 37.8375 50.4624 36.5953 50.8186C35.353 51.1748 34.6347 52.4708 34.9909 53.7131C34.9995 53.743 35.0137 53.7664 35.0246 53.7957L35.0154 53.7983C36.6861 59.6247 42.7626 62.9928 48.589 61.3221C54.4153 59.6514 57.7835 53.5748 56.1127 47.7485L56.1035 47.7512C56.0972 47.7205 56.0962 47.6909 56.0883 47.6632Z" fill="#D57A00"/>
<path d="M48.0137 28.3902C46.1492 28.9248 45.0659 30.8792 45.6006 32.7437C46.1346 34.6059 48.0896 35.6915 49.9541 35.1568C51.8163 34.6228 52.9019 32.6678 52.3672 30.8033C51.8325 28.9388 49.8782 27.8555 48.0137 28.3902Z" fill="url(#paint3_linear_1515_1114)"/>
<path d="M46.6286 23.5592C43.1162 24.5664 40.7519 27.6289 40.4654 31.0658C40.2297 33.9145 36.9572 35.3841 34.6716 33.6675C33.8177 33.0294 32.6891 32.7819 31.5852 33.0985C29.7137 33.6351 28.636 35.5828 29.172 37.452C29.708 39.3211 31.6564 40.4011 33.5255 39.8651C34.6572 39.5406 35.5004 38.6977 35.8683 37.6668C36.8119 35.0342 40.5223 34.7434 42.15 36.9056C44.2149 39.6532 47.8327 40.9879 51.3358 39.9833C55.8715 38.6827 58.4934 33.9525 57.1928 29.4168C55.8951 24.8828 51.1643 22.2586 46.6286 23.5592ZM50.5206 37.1317C47.559 37.9809 44.4718 36.2697 43.6233 33.3105C42.774 30.3489 44.4852 27.2617 47.4468 26.4125C50.406 25.5639 53.4932 27.2751 54.3425 30.2367C55.1911 33.1959 53.4799 36.2831 50.5206 37.1317Z" fill="url(#paint4_linear_1515_1114)"/>
<path d="M38.7454 37.5677C38.2568 37.7078 37.8958 38.0757 37.7454 38.5254C37.1321 40.083 35.8278 41.345 34.0946 41.842C31.1331 42.6912 28.0459 40.98 27.1973 38.0208C26.348 35.0592 28.0593 31.972 31.0208 31.1228C32.7494 30.6271 34.5473 31.0169 35.8916 32.0083C35.9137 32.0244 35.9334 32.0411 35.9555 32.0573C35.9591 32.0612 35.9621 32.0629 35.9674 32.0638C36.319 32.3072 36.7736 32.3964 37.2161 32.2695C37.9997 32.0448 38.4557 31.2256 38.2303 30.4397C38.149 30.1562 37.9907 29.9173 37.7867 29.7363C37.7672 29.712 37.7461 29.6906 37.7204 29.6705C35.6494 28.1019 32.8909 27.4936 30.2013 28.2649C25.6656 29.5655 23.0414 34.2964 24.3427 38.8343C25.6434 43.37 30.3758 45.9913 34.9115 44.6906C37.5758 43.9266 39.5792 41.9803 40.5158 39.5841C40.6479 39.2794 40.6812 38.9256 40.5827 38.5822C40.358 37.7986 39.5336 37.3416 38.7454 37.5677Z" fill="url(#paint5_linear_1515_1114)"/>
<path d="M54.8091 45.5024C54.4529 44.2602 53.1569 43.5418 51.9147 43.8981C50.6724 44.2543 49.9541 45.5503 50.3103 46.7925C50.3189 46.8225 50.3331 46.8458 50.344 46.8751L50.3348 46.8778C51.2931 50.2196 49.3616 53.7042 46.0197 54.6625C42.6779 55.6208 39.1933 53.6893 38.235 50.3475L38.2258 50.3501C38.2179 50.3225 38.2191 50.2922 38.2106 50.2622C37.8543 49.02 36.5584 48.3016 35.3161 48.6578C34.0739 49.014 33.3555 50.31 33.7117 51.5523C33.7203 51.5822 33.7345 51.6056 33.7454 51.6349L33.7362 51.6375C35.4069 57.4639 41.4835 60.832 47.3098 59.1613C53.1361 57.4906 56.5043 51.414 54.8336 45.5877L54.8244 45.5904C54.8181 45.5597 54.8171 45.5301 54.8091 45.5024Z" fill="url(#paint6_linear_1515_1114)"/>
<defs>
<linearGradient id="paint0_linear_1515_1114" x1="51.2748" y1="69.6116" x2="36.9237" y2="19.5657" gradientUnits="userSpaceOnUse">
<stop stop-color="#F0B100"/>
<stop offset="0.9876" stop-color="#EBA700"/>
</linearGradient>
<linearGradient id="paint1_linear_1515_1114" x1="35.9808" y1="16.2761" x2="51.0414" y2="68.7964" gradientUnits="userSpaceOnUse">
<stop stop-color="#C96D00"/>
<stop offset="0.5383" stop-color="#F3AC00"/>
<stop offset="0.9876" stop-color="#FFFF00"/>
</linearGradient>
<linearGradient id="paint2_linear_1515_1114" x1="52.6076" y1="74.2594" x2="34.4137" y2="10.8123" gradientUnits="userSpaceOnUse">
<stop offset="8e-08" stop-color="#FFC100"/>
<stop offset="0.2951" stop-color="#FFD100"/>
<stop offset="0.6566" stop-color="#FFDF00"/>
<stop offset="0.9876" stop-color="#FFE300"/>
</linearGradient>
<linearGradient id="paint3_linear_1515_1114" x1="49.9527" y1="35.1566" x2="48.0119" y2="28.3888" gradientUnits="userSpaceOnUse">
<stop stop-color="#FFC100"/>
<stop offset="0.9876" stop-color="#FFE300"/>
</linearGradient>
<linearGradient id="paint4_linear_1515_1114" x1="45.5316" y1="41.6463" x2="40.8212" y2="25.2199" gradientUnits="userSpaceOnUse">
<stop stop-color="#FFC100"/>
<stop offset="0.9876" stop-color="#FFE300"/>
</linearGradient>
<linearGradient id="paint5_linear_1515_1114" x1="34.2307" y1="44.8844" x2="29.5197" y2="28.4558" gradientUnits="userSpaceOnUse">
<stop stop-color="#FFC100"/>
<stop offset="0.9876" stop-color="#FFE300"/>
</linearGradient>
<linearGradient id="paint6_linear_1515_1114" x1="47.3056" y1="59.1614" x2="43.6105" y2="46.2757" gradientUnits="userSpaceOnUse">
<stop stop-color="#FFC100"/>
<stop offset="0.9876" stop-color="#FFE300"/>
</linearGradient>
</defs>
</svg>
