<svg width="89" height="100" viewBox="0 0 89 100" fill="none" xmlns="http://www.w3.org/2000/svg">
<path d="M69.6648 65.608C69.692 65.0534 69.2647 64.5819 68.71 64.5547L65.784 64.411C65.2294 64.3837 64.7579 64.8111 64.7307 65.3657C64.7034 65.9203 65.1308 66.3918 65.6854 66.419L68.6114 66.5627C69.166 66.59 69.6375 66.1626 69.6648 65.608Z" fill="url(#paint0_linear_1523_1456)"/>
<path d="M67.7579 60.1274C67.994 60.0048 68.1769 59.7933 68.2565 59.5384C68.3361 59.2835 68.3206 59.0144 68.1985 58.7687C67.9447 58.277 67.3407 58.0844 66.8489 58.3382L64.2431 59.6768C63.9282 59.8434 63.7109 60.1683 63.6935 60.5221C63.6851 60.6942 63.7245 60.8686 63.803 61.0259C64.0568 61.5176 64.6608 61.7102 65.1526 61.4564L67.7579 60.1274Z" fill="url(#paint1_linear_1523_1456)"/>
<path d="M62.2055 57.4485L63.7929 54.9864C63.9381 54.7635 63.9899 54.488 63.9357 54.2266C63.8814 53.9651 63.7201 53.7367 63.4972 53.5916C63.0327 53.2908 62.4127 53.4233 62.1119 53.8878L60.5245 56.3499C60.4309 56.4987 60.3746 56.6685 60.3662 56.8406C60.3488 57.1944 60.5236 57.5385 60.8302 57.7356C61.2842 58.0551 61.9047 57.913 62.2055 57.4485Z" fill="url(#paint2_linear_1523_1456)"/>
<path d="M47.624 64.5255C47.6512 63.9709 47.2239 63.4994 46.6693 63.4722L43.7432 63.3285C43.1886 63.3013 42.7171 63.7286 42.6899 64.2832C42.6626 64.8378 43.09 65.3093 43.6446 65.3366L46.5707 65.4803C47.1253 65.5075 47.5968 65.0802 47.624 64.5255Z" fill="url(#paint3_linear_1523_1456)"/>
<path d="M48.13 70.2148C48.366 70.0922 48.549 69.8807 48.6286 69.6258C48.7082 69.3709 48.6927 69.1017 48.561 68.8556C48.3071 68.3639 47.7031 68.1713 47.2114 68.4251L44.6056 69.7637C44.2907 69.9303 44.0734 70.2552 44.056 70.609C44.0476 70.7811 44.0869 70.9556 44.1655 71.1128C44.4193 71.6045 45.0233 71.7971 45.515 71.5433L48.13 70.2148Z" fill="url(#paint4_linear_1523_1456)"/>
<path d="M50.2526 75.9938L51.8401 73.5317C51.9852 73.3087 52.0371 73.0333 51.9829 72.7718C51.9286 72.5104 51.7673 72.282 51.5444 72.1368C51.0799 71.8361 50.4599 71.9686 50.1591 72.4331L48.5716 74.8952C48.4781 75.044 48.4218 75.2137 48.4134 75.3859C48.396 75.7397 48.5708 76.0837 48.8774 76.2809C49.3218 76.5999 49.9518 76.4583 50.2526 75.9938Z" fill="url(#paint5_linear_1523_1456)"/>
<path d="M56.5724 77.4834L56.7161 74.5574C56.7433 74.0028 56.316 73.5313 55.7614 73.504C55.2068 73.4768 54.7353 73.9041 54.708 74.4588L54.5643 77.3848C54.5371 77.9394 54.9644 78.4109 55.5191 78.4381C56.0737 78.4654 56.5452 78.038 56.5724 77.4834Z" fill="url(#paint6_linear_1523_1456)"/>
<path d="M59.5429 73.4116C59.5344 73.5837 59.5738 73.7581 59.6523 73.9154L60.9909 76.5212C61.2447 77.0129 61.8487 77.2056 62.3404 76.9517C62.5765 76.8291 62.7594 76.6177 62.839 76.3628C62.9186 76.1079 62.9031 75.8387 62.781 75.5931L61.4419 72.9968C61.1881 72.5051 60.5841 72.3125 60.0924 72.5663C59.7684 72.7229 59.5607 73.0482 59.5429 73.4116Z" fill="url(#paint7_linear_1523_1456)"/>
<path d="M67.5263 72.2606C67.6714 72.0377 67.7233 71.7623 67.6595 71.5003C67.6052 71.2389 67.4439 71.0105 67.221 70.8653L64.7589 69.2779C64.2944 68.9771 63.6744 69.1096 63.3736 69.5741C63.28 69.7229 63.2238 69.8926 63.2153 70.0647C63.198 70.4185 63.3728 70.7626 63.6794 70.9598L66.1415 72.5473C66.6051 72.8672 67.225 72.7347 67.5263 72.2606Z" fill="url(#paint8_linear_1523_1456)"/>
<path d="M69.6998 73.671C69.6062 73.8198 69.5499 73.9895 69.5415 74.1617C69.5241 74.5155 69.6989 74.8595 70.0055 75.0567L72.4677 76.6442C72.9322 76.945 73.5521 76.8125 73.8529 76.348C73.998 76.1251 74.0499 75.8496 73.9861 75.5877C73.9318 75.3262 73.7705 75.0978 73.5476 74.9527L71.0855 73.3652C70.8625 73.2201 70.5871 73.1682 70.3252 73.232C70.0733 73.2868 69.8454 73.4385 69.6998 73.671Z" fill="url(#paint9_linear_1523_1456)"/>
<path d="M70.9297 56.2379C70.6147 56.4045 70.3975 56.7294 70.3801 57.0832C70.3717 57.2553 70.411 57.4297 70.4896 57.587C70.6122 57.823 70.8237 58.006 71.0785 58.0856C71.3334 58.1652 71.6026 58.1497 71.8482 58.0275L74.4541 56.6889C74.6901 56.5663 74.8731 56.3549 74.9527 56.1C75.0323 55.8451 75.0167 55.5759 74.8946 55.3303C74.6408 54.8386 74.0368 54.646 73.5451 54.8998L70.9297 56.2379Z" fill="url(#paint10_linear_1523_1456)"/>
<path d="M41.4241 73.6528C41.6602 73.5302 41.8431 73.3187 41.9227 73.0639C42.0023 72.809 41.9868 72.5398 41.8647 72.2942C41.6109 71.8024 41.0069 71.6098 40.5151 71.8637L37.9093 73.2022C37.5944 73.3689 37.3771 73.6937 37.3597 74.0475C37.3513 74.2196 37.3907 74.3941 37.4692 74.5513C37.723 75.043 38.327 75.2357 38.8188 74.9818L41.4241 73.6528Z" fill="url(#paint11_linear_1523_1456)"/>
<path d="M56.2033 84.9992L56.347 82.0732C56.3742 81.5185 55.9469 81.0471 55.3923 81.0198C54.8377 80.9926 54.3662 81.4199 54.3389 81.9745L54.1952 84.9006C54.168 85.4552 54.5953 85.9267 55.1499 85.9539C55.7046 85.9812 56.176 85.5538 56.2033 84.9992Z" fill="url(#paint12_linear_1523_1456)"/>
<path d="M79.2365 66.0781C79.2638 65.5235 78.8364 65.052 78.2818 65.0248L71.0527 64.6698C70.4981 64.6425 70.0266 65.0699 69.9994 65.6245C69.9722 66.1791 70.3995 66.6506 70.9541 66.6778L78.1832 67.0329C78.7378 67.0601 79.2093 66.6327 79.2365 66.0781Z" fill="url(#paint13_linear_1523_1456)"/>
<path d="M67.2999 45.842L63.3782 51.9182C63.2846 52.0669 63.2284 52.2367 63.2199 52.4088C63.2025 52.7626 63.3773 53.1067 63.684 53.3039C63.9069 53.449 64.1823 53.5009 64.4443 53.4371C64.7057 53.3828 64.9341 53.2215 65.0793 52.9986L69.0009 46.9224C69.1461 46.6995 69.1979 46.424 69.1437 46.1626C69.0894 45.9011 68.9281 45.6727 68.7052 45.5276C68.2206 45.245 67.6006 45.3775 67.2999 45.842Z" fill="url(#paint14_linear_1523_1456)"/>
<path d="M42.3545 64.2668C42.3818 63.7122 41.9544 63.2407 41.3998 63.2134L34.1708 62.8584C33.6162 62.8312 33.1447 63.2585 33.1174 63.8131C33.0902 64.3677 33.5175 64.8392 34.0721 64.8665L41.3012 65.2215C41.8558 65.2487 42.3273 64.8214 42.3545 64.2668Z" fill="url(#paint15_linear_1523_1456)"/>
<path d="M45.0546 84.0492L48.9762 77.973C49.1214 77.7501 49.1732 77.4747 49.119 77.2132C49.0647 76.9517 48.9034 76.7234 48.6805 76.5782C48.4576 76.4331 48.1821 76.3812 47.9202 76.445C47.6587 76.4993 47.4303 76.6606 47.2852 76.8835L43.3635 82.9597C43.27 83.1085 43.2137 83.2782 43.2053 83.4504C43.1879 83.8042 43.3627 84.1482 43.6693 84.3454C44.1338 84.6462 44.7538 84.5137 45.0546 84.0492Z" fill="url(#paint16_linear_1523_1456)"/>
<path d="M61.9573 78.1022C61.9489 78.2744 61.9882 78.4488 62.0668 78.6061L65.3742 85.0373C65.628 85.529 66.232 85.7216 66.7237 85.4678C66.9598 85.3452 67.1427 85.1337 67.2223 84.8788C67.302 84.6239 67.2769 84.3543 67.1547 84.1087L63.8473 77.6775C63.7247 77.4414 63.5133 77.2585 63.2584 77.1789C63.0035 77.0992 62.7343 77.1148 62.4887 77.2369C62.1824 77.4232 61.9747 77.7484 61.9573 78.1022Z" fill="url(#paint17_linear_1523_1456)"/>
<path d="M58.1594 69.8995L64.4268 64.2189L23.1283 18.6543L16.8608 24.3349L58.1594 69.8995Z" fill="#F4B400"/>
<path d="M25.2248 58.2536C13.818 45.6685 10.0774 30.4846 16.8627 24.3345C23.6481 18.1845 37.4842 24.2181 48.891 36.8032C60.2978 49.3883 64.9467 63.7491 58.1613 69.8991C51.376 76.0492 36.6317 70.8387 25.2248 58.2536Z" fill="#F4B400"/>
<path d="M31.0408 52.9822C19.634 40.3971 15.8858 25.22 22.6712 19.0699C29.4565 12.9199 44.1933 18.1372 55.6001 30.7223C67.0069 43.3074 70.7551 58.4845 63.9697 64.6346C57.1919 70.7778 42.4476 65.5673 31.0408 52.9822Z" fill="url(#paint18_linear_1523_1456)"/>
<path d="M36.397 48.8908C27.6317 39.2201 22.7922 29.3704 27.3483 25.2409C32.1821 20.8597 44.1297 24.2668 52.895 33.9375C61.6603 43.6082 65.0665 54.8028 60.5179 58.9255C59.3995 59.9392 58.1835 61.0413 54.7609 61.2323C49.3548 61.5429 43.015 56.1925 36.397 48.8908Z" fill="url(#paint19_linear_1523_1456)"/>
<path fill-rule="evenodd" clip-rule="evenodd" d="M34.1349 50.179C25.5798 40.7402 22.3423 29.7467 26.8983 25.6172C31.4544 21.4876 42.0835 25.7931 50.6329 35.2256C59.1823 44.6582 62.4255 55.658 57.8694 59.7875C53.3134 63.917 42.69 59.6178 34.1349 50.179Z" fill="url(#paint20_linear_1523_1456)"/>
<defs>
<linearGradient id="paint0_linear_1523_1456" x1="69.699" y1="64.9112" x2="67.4117" y2="68.6908" gradientUnits="userSpaceOnUse">
<stop offset="0.274305" stop-color="#F37020"/>
<stop offset="1" stop-color="white" stop-opacity="0"/>
</linearGradient>
<linearGradient id="paint1_linear_1523_1456" x1="68.3273" y1="58.8066" x2="63.7921" y2="62.8646" gradientUnits="userSpaceOnUse">
<stop offset="0.274305" stop-color="#F37020"/>
<stop offset="1" stop-color="white" stop-opacity="0"/>
</linearGradient>
<linearGradient id="paint2_linear_1523_1456" x1="63.9705" y1="54.1765" x2="58.9286" y2="56.7523" gradientUnits="userSpaceOnUse">
<stop offset="0.274305" stop-color="#F37020"/>
<stop offset="1" stop-color="white" stop-opacity="0"/>
</linearGradient>
<linearGradient id="paint3_linear_1523_1456" x1="47.6582" y1="63.8288" x2="45.3709" y2="67.6083" gradientUnits="userSpaceOnUse">
<stop offset="0.274305" stop-color="#F37020"/>
<stop offset="1" stop-color="white" stop-opacity="0"/>
</linearGradient>
<linearGradient id="paint4_linear_1523_1456" x1="48.699" y1="68.8939" x2="44.1633" y2="72.9607" gradientUnits="userSpaceOnUse">
<stop offset="0.274305" stop-color="#F37020"/>
<stop offset="1" stop-color="white" stop-opacity="0"/>
</linearGradient>
<linearGradient id="paint5_linear_1523_1456" x1="52.0177" y1="72.7218" x2="46.9757" y2="75.2975" gradientUnits="userSpaceOnUse">
<stop offset="0.274305" stop-color="#F37020"/>
<stop offset="1" stop-color="white" stop-opacity="0"/>
</linearGradient>
<linearGradient id="paint6_linear_1523_1456" x1="56.7283" y1="74.3083" x2="53.222" y2="75.1981" gradientUnits="userSpaceOnUse">
<stop offset="0.274305" stop-color="#F37020"/>
<stop offset="1" stop-color="white" stop-opacity="0"/>
</linearGradient>
<linearGradient id="paint7_linear_1523_1456" x1="63.0257" y1="73.2704" x2="57.9876" y2="75.8528" gradientUnits="userSpaceOnUse">
<stop offset="0.274305" stop-color="#F37020"/>
<stop offset="1" stop-color="white" stop-opacity="0"/>
</linearGradient>
<linearGradient id="paint8_linear_1523_1456" x1="67.7809" y1="69.8241" x2="63.2293" y2="73.8851" gradientUnits="userSpaceOnUse">
<stop offset="0.274305" stop-color="#F37020"/>
<stop offset="1" stop-color="white" stop-opacity="0"/>
</linearGradient>
<linearGradient id="paint9_linear_1523_1456" x1="74.1075" y1="73.9114" x2="69.5611" y2="77.9729" gradientUnits="userSpaceOnUse">
<stop offset="0.274305" stop-color="#F37020"/>
<stop offset="1" stop-color="white" stop-opacity="0"/>
</linearGradient>
<linearGradient id="paint10_linear_1523_1456" x1="75.0234" y1="55.3688" x2="70.482" y2="59.4356" gradientUnits="userSpaceOnUse">
<stop offset="0.274305" stop-color="#F37020"/>
<stop offset="1" stop-color="white" stop-opacity="0"/>
</linearGradient>
<linearGradient id="paint11_linear_1523_1456" x1="41.9935" y1="72.332" x2="37.4583" y2="76.3901" gradientUnits="userSpaceOnUse">
<stop offset="0.274305" stop-color="#F37020"/>
<stop offset="1" stop-color="white" stop-opacity="0"/>
</linearGradient>
<linearGradient id="paint12_linear_1523_1456" x1="56.3592" y1="81.8241" x2="52.8529" y2="82.7139" gradientUnits="userSpaceOnUse">
<stop offset="0.274305" stop-color="#F37020"/>
<stop offset="1" stop-color="white" stop-opacity="0"/>
</linearGradient>
<linearGradient id="paint13_linear_1523_1456" x1="79.2707" y1="65.3814" x2="77.7079" y2="69.9453" gradientUnits="userSpaceOnUse">
<stop offset="0.274305" stop-color="#F37020"/>
<stop offset="1" stop-color="white" stop-opacity="0"/>
</linearGradient>
<linearGradient id="paint14_linear_1523_1456" x1="69.1499" y1="46.694" x2="60.5493" y2="50.5954" gradientUnits="userSpaceOnUse">
<stop offset="0.274305" stop-color="#F37020"/>
<stop offset="1" stop-color="white" stop-opacity="0"/>
</linearGradient>
<linearGradient id="paint15_linear_1523_1456" x1="42.3887" y1="63.57" x2="40.8259" y2="68.134" gradientUnits="userSpaceOnUse">
<stop offset="0.274305" stop-color="#F37020"/>
<stop offset="1" stop-color="white" stop-opacity="0"/>
</linearGradient>
<linearGradient id="paint16_linear_1523_1456" x1="49.1258" y1="77.7327" x2="40.5325" y2="81.6216" gradientUnits="userSpaceOnUse">
<stop offset="0.274305" stop-color="#F37020"/>
<stop offset="1" stop-color="white" stop-opacity="0"/>
</linearGradient>
<linearGradient id="paint17_linear_1523_1456" x1="67.5619" y1="78.6237" x2="58.9753" y2="82.4998" gradientUnits="userSpaceOnUse">
<stop offset="0.274305" stop-color="#F37020"/>
<stop offset="1" stop-color="white" stop-opacity="0"/>
</linearGradient>
<linearGradient id="paint18_linear_1523_1456" x1="22.2539" y1="18.6063" x2="63.5528" y2="64.1712" gradientUnits="userSpaceOnUse">
<stop offset="8e-08" stop-color="#FFC100"/>
<stop offset="0.2951" stop-color="#FFD100"/>
<stop offset="0.6566" stop-color="#FFDF00"/>
<stop offset="0.9876" stop-color="#FFE300"/>
</linearGradient>
<linearGradient id="paint19_linear_1523_1456" x1="60.1266" y1="58.4999" x2="28.4073" y2="23.5041" gradientUnits="userSpaceOnUse">
<stop stop-color="#C96D00"/>
<stop offset="0.5383" stop-color="#F3AC00"/>
<stop offset="0.9876" stop-color="#FFFF00"/>
</linearGradient>
<linearGradient id="paint20_linear_1523_1456" x1="25.227" y1="23.7751" x2="56.2012" y2="57.9488" gradientUnits="userSpaceOnUse">
<stop stop-color="#F0B100"/>
<stop offset="0.9876" stop-color="#EBA700"/>
</linearGradient>
</defs>
</svg>
